<svg width="104" height="103" viewBox="0 0 104 103" fill="none" xmlns="http://www.w3.org/2000/svg">
<path d="M96.0492 58.789C100.105 34.4604 83.6279 11.4571 59.2456 7.40967C34.8632 3.3623 11.8091 19.8035 7.7528 44.1322C3.69649 68.4608 20.174 91.4642 44.5564 95.5115C68.9387 99.5589 91.9928 83.1177 96.0492 58.789Z" fill="#F4E6E1"/>
<mask id="mask0_3_17556" style="mask-type:luminance" maskUnits="userSpaceOnUse" x="7" y="6" width="90" height="91">
<path d="M96.0501 58.792C100.106 34.4633 83.6289 11.46 59.2466 7.41261C34.8642 3.36523 11.8101 19.8065 7.75378 44.1351C3.69747 68.4638 20.175 91.4671 44.5574 95.5145C68.9397 99.5618 91.9938 83.1206 96.0501 58.792Z" fill="white"/>
</mask>
<g mask="url(#mask0_3_17556)">
<path d="M35.071 45.089C25.7936 33.2581 33.6589 20.608 40.7996 16.6205C51.2645 10.777 68.8362 12.5626 71.124 17.0188C73.1131 20.8939 69.6589 24.365 69.6589 24.365C69.6589 24.365 74.9161 25.7582 74.72 30.4868C74.524 35.2154 68.5847 37.5471 68.5847 37.5471C68.5847 37.5471 74.7019 41.2965 63.5218 48.4716C52.3416 55.6472 37.0583 47.6239 35.071 45.089Z" fill="#D88D48"/>
<path d="M90.8932 97.0373H12.9185C12.9185 97.0373 15.2827 83.9884 20.6421 76.4768C26.0014 68.9606 45.8912 66.2202 45.8912 66.2202L51.9058 67.1459L57.9204 66.2202C57.9204 66.2202 77.8167 68.9606 83.176 76.4768C88.5347 83.9884 90.8932 97.0373 90.8932 97.0373Z" fill="#9FC9C1"/>
<path d="M71.1626 68.7488C70.2576 75.3899 64.6368 79.3681 59.7192 81.6113C54.8279 83.8429 49.2322 83.8429 44.3409 81.6108C39.425 79.3675 33.8049 75.3894 32.897 68.7488L36.3687 68.1025C37.1512 73.8314 42.2182 77.1389 46.3802 78.9146C49.9931 80.4563 54.0658 80.4563 57.6788 78.9152C61.8419 77.1395 66.9107 73.832 67.6896 68.1025L71.1626 68.7488Z" fill="#79B2A7"/>
<path d="M67.6936 68.1005C66.8814 74.0727 61.4089 77.4134 57.1588 79.1303C53.8691 80.4594 50.1972 80.4594 46.9075 79.1297C42.6591 77.4122 37.1872 74.0715 36.3721 68.0999C42.4403 66.1029 50.8192 65.2413 50.9651 65.2296C51.6536 65.1831 52.0328 65.1772 52.0328 65.1772C52.0328 65.1772 52.4121 65.1831 53.1006 65.2296C53.2465 65.2419 61.6253 66.1035 67.6936 68.1005Z" fill="#F1B69A"/>
<path d="M51.7755 72.8498C48.858 72.8498 46.4932 70.4901 46.4932 67.5791V57.5117H57.0572V67.5791C57.0572 70.4901 54.6923 72.8498 51.7755 72.8498Z" fill="#F1B69A"/>
<path d="M57.0605 56.3442V62.5255C57.0605 62.5255 55.2867 65.603 51.7782 65.603C48.9594 65.603 46.4971 62.9348 46.4971 62.9348V56.3442H57.0605Z" fill="#150A08"/>
<path d="M36.9982 45.5261C34.142 41.1962 30.8296 43.978 30.8296 47.0258C30.8296 51.4395 35.6276 55.2407 38.3694 52.0729C41.1106 48.9046 36.9982 45.5261 36.9982 45.5261Z" fill="#F1B69A"/>
<path d="M36.373 47.5247C34.5957 44.2097 32.1387 47.3029 33.0769 48.5308" stroke="#E07E61" stroke-miterlimit="10" stroke-linecap="round"/>
<path d="M65.5319 45.5261C68.3881 41.1962 71.7005 43.978 71.7005 47.0258C71.7005 51.4395 66.9025 55.2407 64.1607 52.0729C61.4189 48.9046 65.5319 45.5261 65.5319 45.5261Z" fill="#F1B69A"/>
<path d="M66.1553 47.5247C67.9326 44.2097 70.3896 47.3029 69.4514 48.5308" stroke="#E07E61" stroke-miterlimit="10" stroke-linecap="round"/>
<path d="M51.252 62.5266C39.9657 62.522 33.2918 50.216 35.9303 37.5805C38.1038 27.1684 64.4266 27.1725 66.6 37.5805C69.2386 50.2166 62.5442 62.5313 51.252 62.5266Z" fill="#F1B69A"/>
<path opacity="0.5" d="M49.7539 49.8765C50.9156 50.4296 53.532 49.2029 53.5862 49.8765C53.6405 50.5501 52.1975 51.1462 51.6701 51.1462C51.1426 51.1462 49.7539 49.8765 49.7539 49.8765Z" fill="#F1B69A"/>
<path d="M49.7878 46.4834C48.1412 50.036 50.6035 50.7253 51.2628 50.8109" stroke="#E07E61" stroke-miterlimit="10" stroke-linecap="round"/>
<path d="M47.3252 52.7407C51.6821 53.5756 55.1369 52.8799 56.532 51.7661" stroke="#150A08" stroke-miterlimit="10" stroke-linecap="round"/>
<path d="M46.7997 36.7999C46.0943 35.2285 41.9615 35.947 41.3774 37.066C40.7933 38.185 42.727 38.4993 44.1624 38.4289C45.5972 38.3585 47.2484 37.8001 46.7997 36.7999Z" fill="#D88D48"/>
<path d="M55.5633 38.0724C56.2687 36.501 60.4016 37.2194 60.9856 38.3384C61.5697 39.4574 59.636 39.7718 58.2007 39.7014C56.7659 39.6303 55.1146 39.0726 55.5633 38.0724Z" fill="#D88D48"/>
<path opacity="0.5" d="M50.2483 54.8838C51.8284 54.8879 54.094 54.0676 54.4447 54.8838C54.7954 55.7001 52.8664 57.332 51.6697 57.2156C50.4729 57.0991 48.4441 54.8792 50.2483 54.8838Z" fill="#F1B69A"/>
<path d="M43.8159 42.8571C43.8159 43.4829 44.3241 43.99 44.9514 43.99C45.5786 43.99 46.0868 43.4829 46.0868 42.8571C46.0868 42.2312 45.5786 41.7241 44.9514 41.7241C44.3241 41.7241 43.8159 42.2312 43.8159 42.8571Z" fill="#150A08"/>
<path d="M58.7158 42.8571C58.7158 43.4829 58.2075 43.99 57.5803 43.99C56.953 43.99 56.4448 43.4829 56.4448 42.8571C56.4448 42.2312 56.953 41.7241 57.5803 41.7241C58.2075 41.7241 58.7158 42.2312 58.7158 42.8571Z" fill="#150A08"/>
<path d="M43.559 26.1863C43.2854 33.3945 59.7572 37.2656 64.1257 36.6001C68.4943 35.9347 69.8066 30.2606 62.9529 25.6047C56.0993 20.9483 43.6804 22.9854 43.559 26.1863Z" fill="#D88D48"/>
</g>
</svg>
