<svg width="128" height="127" viewBox="0 0 128 127" fill="none" xmlns="http://www.w3.org/2000/svg">
<path d="M95.7445 94.9822C113.223 77.5422 113.223 49.2664 95.7445 31.8264C78.266 14.3864 49.9278 14.3864 32.4493 31.8264C14.9709 49.2664 14.9709 77.5422 32.4493 94.9822C49.9278 112.422 78.266 112.422 95.7445 94.9822Z" fill="#F4DDD4"/>
<mask id="mask0_3_17615" style="mask-type:luminance" maskUnits="userSpaceOnUse" x="19" y="18" width="90" height="91">
<path d="M95.7431 94.9797C113.222 77.5398 113.222 49.264 95.743 31.824C78.2646 14.384 49.9264 14.384 32.4479 31.824C14.9694 49.264 14.9694 77.5397 32.4479 94.9797C49.9264 112.42 78.2646 112.42 95.7431 94.9797Z" fill="white"/>
</mask>
<g mask="url(#mask0_3_17615)">
<path d="M58.5454 30.3617C42.3747 31.8713 42.6757 45.7544 45.0634 55.9441C47.451 66.1338 48.2369 75.9223 48.2369 75.9223C48.2369 75.9223 65.2882 79.0977 79.3648 74.7347C79.3648 74.7347 86.9576 47.8038 81.2844 37.6147C75.6112 27.4244 60.7224 27.1537 58.5454 30.3617Z" fill="#5B4852"/>
<path d="M98.9562 108.063H29.2378C29.2378 108.063 32.4896 95.5407 37.1149 88.1223C41.7401 80.6992 58.719 78.1748 58.719 78.1748L64.0964 79.0732L69.4738 78.1748C69.4738 78.1748 86.4585 80.6992 91.0838 88.1223C95.7097 95.5407 98.9562 108.063 98.9562 108.063Z" fill="#D66572"/>
<path d="M58.0813 78.1748L50.3799 79.6158C50.3799 79.6158 52.1554 88.3074 59.1969 92.6518L63.978 86.8065V80.5356L58.0813 78.1748Z" fill="white"/>
<path d="M69.5793 78.1748L77.2808 79.6158C77.2808 79.6158 75.5052 88.3074 68.4637 92.6518L63.6826 86.8065V80.5356L69.5793 78.1748Z" fill="white"/>
<path d="M63.9682 84.8049C61.0508 84.8049 58.6865 82.4452 58.6865 79.5348V69.4668H69.2505V79.5348C69.25 82.4452 66.8857 84.8049 63.9682 84.8049Z" fill="#F1B69A"/>
<path d="M69.25 68.2993V74.4805C69.25 74.4805 67.4762 77.5581 63.9677 77.5581C61.1488 77.5581 58.6865 74.8898 58.6865 74.8898V68.2993H69.25Z" fill="#150A08"/>
<path d="M49.1892 57.4814C46.3331 53.1521 43.02 55.9333 43.02 58.9817C43.02 63.3953 47.818 67.1965 50.5598 64.0288C53.3022 60.8605 49.1892 57.4814 49.1892 57.4814Z" fill="#F1B69A"/>
<path d="M48.564 59.4803C46.7867 56.1653 44.3296 59.2585 45.2679 60.4864" stroke="#E07E61" stroke-miterlimit="10" stroke-linecap="round"/>
<path d="M77.7218 57.4814C80.578 53.1521 83.891 55.9333 83.891 58.9817C83.891 63.3953 79.093 67.1965 76.3512 64.0288C73.6094 60.8605 77.7218 57.4814 77.7218 57.4814Z" fill="#F1B69A"/>
<path d="M78.3457 59.4803C80.123 56.1653 82.5801 59.2585 81.6418 60.4864" stroke="#E07E61" stroke-miterlimit="10" stroke-linecap="round"/>
<path d="M63.442 74.4817C52.1556 74.477 45.4817 62.1711 48.1202 49.5356C50.2937 39.1235 76.6165 39.1276 78.79 49.5356C81.4279 62.1716 74.7336 74.4863 63.442 74.4817Z" fill="#F1B69A"/>
<path opacity="0.5" d="M61.9438 61.8315C63.1056 62.3846 65.7219 61.1579 65.7762 61.8315C65.8304 62.5052 64.3875 63.1013 63.86 63.1013C63.332 63.1013 61.9438 61.8315 61.9438 61.8315Z" fill="#F1B69A"/>
<path d="M61.9814 58.4385C60.3342 61.9911 62.7971 62.6804 63.4564 62.766" stroke="#E07E61" stroke-miterlimit="10" stroke-linecap="round"/>
<path d="M58.9936 48.755C58.2882 47.1836 54.1553 47.9021 53.5713 49.021C52.9872 50.14 54.9209 50.4538 56.3562 50.384C57.7916 50.3129 59.4423 49.7552 58.9936 48.755Z" fill="#150A08"/>
<path d="M67.9188 48.755C68.6242 47.1836 72.757 47.9021 73.3411 49.021C73.9252 50.14 71.9915 50.4538 70.5561 50.384C69.1213 50.3129 67.4701 49.7552 67.9188 48.755Z" fill="#150A08"/>
<path d="M56.0059 54.8122C56.0059 55.438 56.5141 55.9451 57.1413 55.9451C57.7686 55.9451 58.2768 55.438 58.2768 54.8122C58.2768 54.1863 57.7686 53.6792 57.1413 53.6792C56.5146 53.6792 56.0059 54.1863 56.0059 54.8122Z" fill="#150A08"/>
<path d="M70.9052 54.8122C70.9052 55.438 70.397 55.9451 69.7697 55.9451C69.1425 55.9451 68.6343 55.438 68.6343 54.8122C68.6343 54.1863 69.1425 53.6792 69.7697 53.6792C70.397 53.6792 70.9052 54.1863 70.9052 54.8122Z" fill="#150A08"/>
<path d="M59.4956 64.9843C63.8525 65.8197 67.3073 65.1234 68.7024 64.0103" stroke="#150A08" stroke-miterlimit="10" stroke-linecap="round"/>
<path opacity="0.5" d="M62.4187 67.1277C63.9988 67.1318 66.2645 66.3121 66.6151 67.1277C66.9658 67.944 65.0368 69.5759 63.8401 69.4594C62.6433 69.343 60.6146 67.1231 62.4187 67.1277Z" fill="#F1B69A"/>
<path d="M49.5629 41.2184C47.2738 43.992 46.7207 51.3796 46.7207 51.3796H51.9633L54.561 43.1886V50.982C54.561 50.982 57.1587 51.6905 60.484 51.3796L62.3465 45.1495L65.16 50.982C65.16 50.982 69.0046 52.0357 71.2907 50.982L70.5532 45.1495L73.3557 50.982C73.3557 50.982 77.8083 51.5868 80.0051 50.3427C80.0051 50.3427 81.7859 43.1886 74.3044 39.4561C66.823 35.7236 53.9273 35.9303 49.5629 41.2184Z" fill="#5B4852"/>
</g>
</svg>
