<svg width="104" height="103" viewBox="0 0 104 103" fill="none" xmlns="http://www.w3.org/2000/svg">
<path d="M96.2474 58.7832C100.304 34.4545 83.8262 11.4512 59.4438 7.40381C35.0615 3.35644 12.0074 19.7977 7.95105 44.1263C3.89474 68.455 20.3723 91.4583 44.7546 95.5057C69.137 99.553 92.1911 83.1118 96.2474 58.7832Z" fill="#F4E6E1"/>
<mask id="mask0_3_17486" style="mask-type:luminance" maskUnits="userSpaceOnUse" x="7" y="6" width="90" height="91">
<path d="M96.2498 58.7807C100.306 34.4521 83.8286 11.4487 59.4463 7.40136C35.0639 3.35399 12.0098 19.7952 7.95349 44.1239C3.89718 68.4525 20.3747 91.4559 44.7571 95.5032C69.1394 99.5506 92.1935 83.1094 96.2498 58.7807Z" fill="white"/>
</mask>
<g mask="url(#mask0_3_17486)">
<path d="M69.8511 43.2466C70.2128 38.2676 74.0078 24.4183 65.8163 25.3585C64.7555 18.1468 57.9841 14.497 51.4596 14.83C33.763 15.733 31.0253 31.8629 33.7992 43.246C38.2897 55.1806 61.366 45.8502 69.8487 43.2653C69.8499 43.2594 69.8505 43.253 69.8511 43.2466Z" fill="#D76A40"/>
<path d="M91.0895 97.0304H13.1147C13.1147 97.0304 15.479 83.9816 20.8383 76.47C26.1977 68.9538 46.0875 66.2134 46.0875 66.2134L52.1021 67.1391L58.1167 66.2134C58.1167 66.2134 78.013 68.9538 83.3723 76.47C88.7316 83.9816 91.0895 97.0304 91.0895 97.0304Z" fill="#5B4850"/>
<path d="M41.4685 66.7755C46.7666 65.5587 51.2769 65.9139 52.0004 65.9837C52.0004 65.9837 52.0004 65.9837 52.0063 65.9837C52.7298 65.9139 57.2401 65.5587 62.5382 66.7755C63.0429 71.5088 61.0841 77.47 52.1031 77.4973C43.0107 77.5253 40.955 71.5671 41.4685 66.7755Z" fill="white"/>
<path d="M51.9756 72.843C49.0581 72.843 46.6938 70.4833 46.6938 67.5723V57.5049H57.2579V67.5723C57.2573 70.4833 54.893 72.843 51.9756 72.843Z" fill="#F1B69A"/>
<path d="M57.2573 56.9136V63.0948C57.2573 63.0948 55.4835 66.1723 51.975 66.1723C49.1562 66.1723 46.6938 63.5041 46.6938 63.5041V56.9136H57.2573Z" fill="#150A08"/>
<path d="M37.1961 45.5197C34.3399 41.1899 31.0269 43.9717 31.0269 47.0195C31.0269 51.4331 35.8249 55.2343 38.5667 52.0666C41.309 48.8982 37.1961 45.5197 37.1961 45.5197Z" fill="#F1B69A"/>
<path d="M36.5708 47.5184C34.7935 44.2033 32.3364 47.2966 33.2747 48.5244" stroke="#E07E61" stroke-miterlimit="10" stroke-linecap="round"/>
<path d="M65.7287 45.5197C68.5848 41.1899 71.8979 43.9717 71.8979 47.0195C71.8979 51.4331 67.0999 55.2343 64.3581 52.0666C61.6163 48.8982 65.7287 45.5197 65.7287 45.5197Z" fill="#F1B69A"/>
<path d="M66.3525 47.5184C68.1298 44.2033 70.5869 47.2966 69.6486 48.5244" stroke="#E07E61" stroke-miterlimit="10" stroke-linecap="round"/>
<path d="M51.4488 62.5198C40.1625 62.5151 33.4885 50.2091 36.1271 37.5736C38.3006 27.1616 64.6233 27.1656 66.7968 37.5736C69.4348 50.2097 62.7404 62.5244 51.4488 62.5198Z" fill="#F1B69A"/>
<path d="M68.1065 41.7173C68.1065 41.7173 67.9607 53.0585 63.7187 58.3624C59.482 63.6662 51.9767 64.0092 51.9767 64.0092C51.9767 64.0092 43.5669 63.6662 39.3302 58.3624C35.0935 53.0585 34.9424 41.7173 34.9424 41.7173L35.5305 40.5762C35.96 43.6164 37.9538 51.4942 40.3495 53.235C44.2735 51.925 47.2102 51.7789 51.6913 51.7789C56.4823 51.7789 59.5363 52.293 62.8657 52.7098C64.7941 51.0162 67.1298 43.3457 67.5184 40.5762L68.1065 41.7173Z" fill="#D76A40"/>
<path opacity="0.5" d="M49.9507 49.8696C51.1124 50.4227 53.7288 49.196 53.783 49.8696C53.8373 50.5432 52.3943 51.1394 51.8668 51.1394C51.3388 51.1394 49.9507 49.8696 49.9507 49.8696Z" fill="#F1B69A"/>
<path d="M49.9887 46.4766C48.3415 50.0292 50.8044 50.7185 51.4638 50.8041" stroke="#E07E61" stroke-miterlimit="10" stroke-linecap="round"/>
<path d="M47.3564 53.2349C51.6766 53.6983 54.5648 53.2244 56.6146 53.2943C56.6146 53.2943 54.0269 56.9412 50.9846 56.2157C47.9429 55.4903 47.3564 53.2349 47.3564 53.2349Z" fill="white"/>
<path d="M47.0004 36.7931C46.295 35.2217 42.1622 35.9401 41.5781 37.0591C40.994 38.1781 42.9277 38.4925 44.3631 38.4221C45.7984 38.3516 47.4491 37.7933 47.0004 36.7931Z" fill="#D76A40"/>
<path d="M55.9256 36.7931C56.631 35.2217 60.7639 35.9401 61.3479 37.0591C61.932 38.1781 59.9983 38.4925 58.5629 38.4221C57.1282 38.3516 55.4769 37.7933 55.9256 36.7931Z" fill="#D76A40"/>
<path opacity="0.5" d="M50.3435 57.2754C51.9236 57.2795 54.1892 56.4592 54.5399 57.2754C54.8906 58.0917 52.9616 59.7236 51.7649 59.6066C50.5681 59.4901 48.5394 57.2708 50.3435 57.2754Z" fill="#F1B69A"/>
<path d="M44.0127 42.8502C44.0127 43.4761 44.5209 43.9832 45.1481 43.9832C45.7754 43.9832 46.2836 43.4761 46.2836 42.8502C46.2836 42.2244 45.7754 41.7173 45.1481 41.7173C44.5215 41.7173 44.0127 42.2244 44.0127 42.8502Z" fill="#150A08"/>
<path d="M57.7771 43.9832C58.4042 43.9832 58.9125 43.476 58.9125 42.8502C58.9125 42.2245 58.4042 41.7173 57.7771 41.7173C57.15 41.7173 56.6416 42.2245 56.6416 42.8502C56.6416 43.476 57.15 43.9832 57.7771 43.9832Z" fill="#150A08"/>
<path d="M42.8159 29.9661L45.4457 29.3297C45.4457 29.3297 42.0212 34.8141 49.3171 35.8661C56.613 36.9181 64.2135 31.9898 58.154 29.4759L60.3567 29.3297L55.0563 25.2729L42.8159 29.9661Z" fill="#D76A40"/>
</g>
</svg>
