<svg width="90" height="91" viewBox="0 0 90 91" fill="none" xmlns="http://www.w3.org/2000/svg">
<path d="M44.9053 90.2814C69.6238 90.2814 89.6622 70.2872 89.6622 45.6231C89.6622 20.959 69.6238 0.964844 44.9053 0.964844C20.1868 0.964844 0.148438 20.959 0.148438 45.6231C0.148438 70.2872 20.1868 90.2814 44.9053 90.2814Z" fill="#F4DDD4"/>
<mask id="mask0_3_17708" style="mask-type:luminance" maskUnits="userSpaceOnUse" x="0" y="0" width="90" height="91">
<path d="M44.9048 90.2824C69.6233 90.2824 89.6617 70.2882 89.6617 45.6241C89.6617 20.96 69.6233 0.96582 44.9048 0.96582C20.1863 0.96582 0.147949 20.96 0.147949 45.6241C0.147949 70.2882 20.1863 90.2824 44.9048 90.2824Z" fill="white"/>
</mask>
<g mask="url(#mask0_3_17708)">
<path d="M51.8672 16.5075C50.1716 7.87522 59.7238 2.63076 65.4554 8.81373C71.187 14.9967 66.9118 19.6362 61.1201 20.2074C55.3278 20.7785 53.3329 16.2886 53.3329 16.2886L51.8672 16.5075Z" fill="#D76A40"/>
<path d="M47.7188 16.1706C49.3158 11.2621 57.7815 15.2554 59.8185 18.5495C61.8554 21.8436 60.9125 26.6316 60.9125 26.6316L47.7188 16.1706Z" fill="#5B4852"/>
<path d="M25.7422 37.728C23.1806 20.2626 35.4298 13.9195 46.0813 14.1547C56.7334 14.3899 61.7689 22.847 61.7689 22.847C61.7689 22.847 69.3904 34.1312 60.0593 44.4856C50.7288 54.8395 25.7422 37.728 25.7422 37.728Z" fill="#D76A40"/>
<path d="M79.7663 90.2805H10.0479C10.0479 90.2805 13.2996 77.758 17.9249 70.3396C22.5502 62.9165 39.5291 60.3921 39.5291 60.3921L44.9065 61.2904L50.2839 60.3921C50.2839 60.3921 67.2686 62.9165 71.8938 70.3396C76.5197 77.758 79.7663 90.2805 79.7663 90.2805Z" fill="#D88D48"/>
<path d="M26.2349 64.1726C32.7897 77.6436 52.6959 78.9069 63.5844 64.1726C63.5844 64.1726 47.7083 54.0481 26.2349 64.1726Z" fill="white"/>
<path d="M44.7745 67.0163C41.8571 67.0163 39.4922 64.6566 39.4922 61.7462V51.6782H50.0562V61.7462C50.0562 64.6572 47.6913 67.0163 44.7745 67.0163Z" fill="#F1B69A"/>
<path d="M50.0595 50.5146V56.6959C50.0595 56.6959 48.2857 59.7734 44.7772 59.7734C41.9584 59.7734 39.4961 57.1052 39.4961 57.1052V50.5146H50.0595Z" fill="#150A08"/>
<path d="M29.9972 39.6972C27.1411 35.3679 23.8286 38.1491 23.8286 41.1975C23.8286 45.6112 28.6266 49.4124 31.3684 46.2446C34.1096 43.0763 29.9972 39.6972 29.9972 39.6972Z" fill="#F1B69A"/>
<path d="M29.3725 41.6961C27.5953 38.3811 25.1382 41.4743 26.0764 42.7022" stroke="#E07E61" stroke-miterlimit="10" stroke-linecap="round"/>
<path d="M58.5309 39.6972C61.3871 35.3679 64.6995 38.1491 64.6995 41.1975C64.6995 45.6112 59.9015 49.4124 57.1597 46.2446C54.4179 43.0763 58.5309 39.6972 58.5309 39.6972Z" fill="#F1B69A"/>
<path d="M59.1543 41.6961C60.9316 38.3811 63.3886 41.4743 62.4504 42.7022" stroke="#E07E61" stroke-miterlimit="10" stroke-linecap="round"/>
<path d="M44.2511 56.697C32.9647 56.6924 26.2908 44.3864 28.9293 31.7509C31.1028 21.3388 57.4256 21.3429 59.5991 31.7509C62.2376 44.3864 55.5433 56.7011 44.2511 56.697Z" fill="#F1B69A"/>
<path opacity="0.5" d="M42.7529 44.0469C43.9147 44.6 46.531 43.3733 46.5853 44.0469C46.6395 44.7205 45.1966 45.3167 44.6691 45.3167C44.1416 45.3167 42.7529 44.0469 42.7529 44.0469Z" fill="#F1B69A"/>
<path d="M42.7868 40.6538C41.1402 44.2064 43.6025 44.8951 44.2619 44.9813" stroke="#E07E61" stroke-miterlimit="10" stroke-linecap="round"/>
<path d="M39.7993 30.9703C39.0938 29.399 34.961 30.1174 34.3769 31.2364C33.7928 32.3554 35.7265 32.6692 37.1619 32.5993C38.5967 32.5289 40.248 31.9705 39.7993 30.9703Z" fill="#D76A40"/>
<path d="M48.7284 30.9703C49.4338 29.399 53.5666 30.1174 54.1507 31.2364C54.7348 32.3554 52.8011 32.6692 51.3657 32.5993C49.9303 32.5289 48.2797 31.9705 48.7284 30.9703Z" fill="#D76A40"/>
<path d="M36.8149 37.0275C36.8149 37.6533 37.3231 38.1605 37.9504 38.1605C38.5776 38.1605 39.0859 37.6533 39.0859 37.0275C39.0859 36.4016 38.5776 35.8945 37.9504 35.8945C37.3231 35.8945 36.8149 36.4016 36.8149 37.0275Z" fill="#150A08"/>
<path d="M51.7148 37.0275C51.7148 37.6533 51.2065 38.1605 50.5793 38.1605C49.9521 38.1605 49.4438 37.6533 49.4438 37.0275C49.4438 36.4016 49.9521 35.8945 50.5793 35.8945C51.2065 35.8945 51.7148 36.4016 51.7148 37.0275Z" fill="#150A08"/>
<path d="M40.3018 47.2011C44.6592 48.0365 48.1135 47.3402 49.5086 46.2271" stroke="#150A08" stroke-miterlimit="10" stroke-linecap="round"/>
<path opacity="0.5" d="M43.2289 49.3448C44.8089 49.3489 47.0746 48.5285 47.4253 49.3448C47.776 50.1604 45.847 51.7929 44.6502 51.6759C43.4529 51.5595 41.4247 49.3395 43.2289 49.3448Z" fill="#F1B69A"/>
<path d="M46.5872 20.914C27.8345 27.0742 30.822 44.6904 34.2727 55.1462C34.2727 55.1462 22.2325 37.881 27.6233 27.0742C33.0141 16.268 46.5872 20.914 46.5872 20.914Z" fill="#D76A40"/>
</g>
</svg>
