<svg width="104" height="103" viewBox="0 0 104 103" fill="none" xmlns="http://www.w3.org/2000/svg">
<path d="M95.8543 58.7964C99.9106 34.4677 83.4331 11.4644 59.0507 7.417C34.6684 3.36962 11.6143 19.8108 7.55798 44.1395C3.50167 68.4682 19.9792 91.4715 44.3615 95.5189C68.7439 99.5662 91.798 83.125 95.8543 58.7964Z" fill="#F4DDD4"/>
<path d="M95.8543 58.7964C99.9106 34.4677 83.4331 11.4644 59.0507 7.417C34.6684 3.36962 11.6143 19.8108 7.55798 44.1395C3.50167 68.4682 19.9792 91.4715 44.3615 95.5189C68.7439 99.5662 91.798 83.125 95.8543 58.7964Z" fill="#F4E6E1"/>
<mask id="mask0_3_17516" style="mask-type:luminance" maskUnits="userSpaceOnUse" x="6" y="6" width="91" height="91">
<path d="M95.8529 58.7983C99.9092 34.4697 83.4317 11.4663 59.0493 7.41896C34.6669 3.37158 11.6128 19.8128 7.55652 44.1415C3.5002 68.4701 19.9777 91.4734 44.3601 95.5208C68.7425 99.5682 91.7966 83.127 95.8529 58.7983Z" fill="white"/>
</mask>
<g mask="url(#mask0_3_17516)">
<path d="M69.4622 43.9877C74.2165 35.3996 72.3634 20.8085 61.9791 17.1866C51.1951 13.425 41.9106 16.6103 41.0757 22.3822C41.0757 22.3822 35.3709 21.0466 31.5911 27.1388C27.8113 33.2309 30.5274 43.473 36.1779 49.667C41.8284 55.8611 65.5955 50.9723 69.4622 43.9877Z" fill="#5B4852"/>
<path d="M90.6955 97.0329H12.7202C12.7202 97.0329 15.0845 83.984 20.4438 76.4725C25.8031 68.9562 45.693 66.2158 45.693 66.2158L51.7076 67.1415L57.7222 66.2158C57.7222 66.2158 77.6184 68.9562 82.9778 76.4725C88.3371 83.984 90.6955 97.0329 90.6955 97.0329Z" fill="#D66572"/>
<mask id="mask1_3_17516" style="mask-type:luminance" maskUnits="userSpaceOnUse" x="12" y="66" width="79" height="32">
<path d="M90.6955 97.0304H12.7202C12.7202 97.0304 15.0845 83.9816 20.4438 76.47C25.8031 68.9538 45.693 66.2134 45.693 66.2134L51.7076 67.1391L57.7222 66.2134C57.7222 66.2134 77.6184 68.9538 82.9778 76.47C88.3371 83.9816 90.6955 97.0304 90.6955 97.0304Z" fill="white"/>
</mask>
<g mask="url(#mask1_3_17516)">
<path d="M13.4507 70.9395H94.5261V77.9981H7.60303V70.9395H13.4507Z" fill="#E28693"/>
<path d="M13.4507 81.6553H94.5261V88.7139H7.60303V81.6553H13.4507Z" fill="#E28693"/>
<path d="M13.4507 92.3677H94.5261V99.4269H7.60303V92.3677H13.4507Z" fill="#E28693"/>
</g>
<path d="M40.0518 67.2052C40.0518 67.2052 43.6729 76.1856 51.8096 76.1856C59.9463 76.1856 63.0184 67.2052 63.0184 67.2052C63.0184 67.2052 52.0109 62.9697 40.0518 67.2052Z" fill="#F1B69A"/>
<path d="M51.5801 72.84C48.6626 72.84 46.2983 70.4804 46.2983 67.5694V57.502H56.8623V67.5694C56.8623 70.4804 54.4975 72.84 51.5801 72.84Z" fill="#F1B69A"/>
<path d="M56.8618 56.3389V62.5201C56.8618 62.5201 55.088 65.5976 51.5795 65.5976C48.7607 65.5976 46.2983 62.9294 46.2983 62.9294V56.3389H56.8618Z" fill="#150A08"/>
<path d="M36.7996 45.5168C33.9434 41.187 30.6304 43.9687 30.6304 47.0165C30.6304 51.4302 35.4284 55.2314 38.1702 52.0636C40.912 48.8953 36.7996 45.5168 36.7996 45.5168Z" fill="#F1B69A"/>
<path d="M36.1743 47.5155C34.397 44.2004 31.94 47.2937 32.8782 48.5215" stroke="#E07E61" stroke-miterlimit="10" stroke-linecap="round"/>
<path d="M65.3324 45.5168C68.1886 41.187 71.501 43.9687 71.501 47.0165C71.501 51.4302 66.703 55.2314 63.9612 52.0636C61.22 48.8953 65.3324 45.5168 65.3324 45.5168Z" fill="#F1B69A"/>
<path d="M65.9561 47.5155C67.7334 44.2004 70.1904 47.2937 69.2522 48.5215" stroke="#E07E61" stroke-miterlimit="10" stroke-linecap="round"/>
<path d="M51.0538 62.5208C39.7674 62.5161 33.0935 50.2101 35.732 37.5746C37.9055 27.1625 64.2283 27.1666 66.4018 37.5746C69.0403 50.2107 62.3454 62.5254 51.0538 62.5208Z" fill="#F1B69A"/>
<path d="M55.4551 33.3017C59.4164 26.3176 51.4355 21.4068 47.8441 23.5242C44.2528 25.6411 43.4972 28.0014 43.6174 30.7913C43.6174 30.7913 42.2363 25.9142 39.1135 28.1644C35.9912 30.4152 37.0689 36.6744 37.0689 36.6744L39.1135 37.7719L55.4551 33.3017Z" fill="#F1B69A"/>
<path opacity="0.5" d="M49.5552 49.8711C50.7169 50.4242 53.3332 49.1975 53.3875 49.8711C53.4418 50.5447 51.9994 51.1409 51.4713 51.1409C50.9439 51.1409 49.5552 49.8711 49.5552 49.8711Z" fill="#F1B69A"/>
<path d="M49.5932 46.4775C47.946 50.0301 50.4089 50.7195 51.0683 50.805" stroke="#E07E61" stroke-miterlimit="10" stroke-linecap="round"/>
<path d="M47.127 52.7349C51.4838 53.5697 54.9387 52.874 56.3338 51.7603" stroke="#150A08" stroke-miterlimit="10" stroke-linecap="round"/>
<path d="M46.6017 36.794C45.8962 35.2227 41.7634 35.9411 41.1793 37.0601C40.5947 38.1791 42.5289 38.4935 43.9643 38.423C45.3997 38.3526 47.051 37.7943 46.6017 36.794Z" fill="#5B4852"/>
<path d="M55.5308 36.794C56.2362 35.2227 60.369 35.9411 60.9531 37.0601C61.5377 38.1791 59.6035 38.4935 58.1681 38.423C56.7327 38.3526 55.0815 37.7943 55.5308 36.794Z" fill="#5B4852"/>
<path opacity="0.5" d="M50.0499 54.878C51.63 54.8821 53.8957 54.0617 54.2463 54.878C54.597 55.6942 52.668 57.3261 51.4713 57.2097C50.274 57.0933 48.2452 54.8733 50.0499 54.878Z" fill="#F1B69A"/>
<path d="M43.6177 42.8512C43.6177 43.4771 44.1259 43.9842 44.7531 43.9842C45.3804 43.9842 45.8886 43.4771 45.8886 42.8512C45.8886 42.2254 45.3804 41.7183 44.7531 41.7183C44.1259 41.7183 43.6177 42.2254 43.6177 42.8512Z" fill="#150A08"/>
<path d="M58.517 42.8512C58.517 43.4771 58.0088 43.9842 57.3816 43.9842C56.7543 43.9842 56.2461 43.4771 56.2461 42.8512C56.2461 42.2254 56.7543 41.7183 57.3816 41.7183C58.0088 41.7183 58.517 42.2254 58.517 42.8512Z" fill="#150A08"/>
<path d="M43.6159 30.7948C44.0302 25.0584 52.0712 28.8293 56.5302 33.6179C61.7775 39.2519 65.9126 40.3086 69.4585 37.7754C73.0043 35.2422 68.3656 23.8014 57.3792 21.2869C46.3927 18.7724 42.0989 26.7875 43.6159 30.7948Z" fill="#5B4852"/>
<path d="M43.6184 30.7936C41.5126 26.6291 36.1773 34.4172 35.1579 41.7203C34.5452 46.1118 33.789 40.3539 32.674 39.2506C31.5595 38.1473 31.7299 29.5075 37.9936 27.5717C44.2574 25.6364 43.6184 30.7936 43.6184 30.7936Z" fill="#5B4852"/>
</g>
</svg>
