<svg width="44" height="44" viewBox="0 0 44 44" fill="none" xmlns="http://www.w3.org/2000/svg">
<rect width="44" height="44" rx="8" fill="#E40443"/>
<g clip-path="url(#clip0_652_9901)">
<path d="M29.5 25.6833V28.63C29.5001 28.841 29.4202 29.0441 29.2763 29.1985C29.1325 29.3528 28.9355 29.4469 28.725 29.4617C28.3608 29.4867 28.0633 29.5 27.8333 29.5C20.4692 29.5 14.5 23.5308 14.5 16.1667C14.5 15.9367 14.5125 15.6392 14.5383 15.275C14.5531 15.0645 14.6472 14.8675 14.8015 14.7237C14.9559 14.5798 15.159 14.4999 15.37 14.5H18.3167C18.42 14.4999 18.5197 14.5382 18.5964 14.6075C18.6731 14.6768 18.7213 14.7722 18.7317 14.875C18.7508 15.0667 18.7683 15.2192 18.785 15.335C18.9506 16.4908 19.29 17.6149 19.7917 18.6692C19.8708 18.8358 19.8192 19.035 19.6692 19.1417L17.8708 20.4267C18.9704 22.9887 21.0121 25.0305 23.5742 26.13L24.8575 24.335C24.91 24.2617 24.9865 24.2091 25.0737 24.1864C25.161 24.1637 25.2535 24.1723 25.335 24.2108C26.3892 24.7116 27.513 25.0501 28.6683 25.215C28.7842 25.2317 28.9367 25.25 29.1267 25.2683C29.2294 25.2789 29.3245 25.3271 29.3936 25.4038C29.4628 25.4805 29.501 25.5801 29.5008 25.6833H29.5Z" fill="white"/>
</g>
<defs>
<clipPath id="clip0_652_9901">
<rect width="20" height="20" fill="white" transform="translate(12 12)"/>
</clipPath>
</defs>
</svg>
