<svg width="64" height="64" viewBox="0 0 64 64" fill="none" xmlns="http://www.w3.org/2000/svg">
<g filter="url(#filter0_d_2209_102971)">
<rect x="16" y="16" width="24" height="24" rx="12" fill="#41B079" shape-rendering="crispEdges"/>
<g clip-path="url(#clip0_2209_102971)">
<path d="M28.45 25.43L30.571 27.5515L25.621 32.501H23.5V30.3795L28.45 25.4295V25.43ZM29.157 24.723L30.2175 23.662C30.3113 23.5683 30.4384 23.5156 30.571 23.5156C30.7036 23.5156 30.8307 23.5683 30.9245 23.662L32.339 25.0765C32.4327 25.1703 32.4854 25.2974 32.4854 25.43C32.4854 25.5626 32.4327 25.6898 32.339 25.7835L31.278 26.844L29.157 24.723Z" fill="white"/>
</g>
<rect x="16.5" y="16.5" width="23" height="23" rx="11.5" stroke="#E8E8E8" shape-rendering="crispEdges"/>
</g>
<defs>
<filter id="filter0_d_2209_102971" x="0" y="0" width="64" height="64" filterUnits="userSpaceOnUse" color-interpolation-filters="sRGB">
<feFlood flood-opacity="0" result="BackgroundImageFix"/>
<feColorMatrix in="SourceAlpha" type="matrix" values="0 0 0 0 0 0 0 0 0 0 0 0 0 0 0 0 0 0 127 0" result="hardAlpha"/>
<feOffset dx="4" dy="4"/>
<feGaussianBlur stdDeviation="10"/>
<feComposite in2="hardAlpha" operator="out"/>
<feColorMatrix type="matrix" values="0 0 0 0 0 0 0 0 0 0 0 0 0 0 0 0 0 0 0.16 0"/>
<feBlend mode="normal" in2="BackgroundImageFix" result="effect1_dropShadow_2209_102971"/>
<feBlend mode="normal" in="SourceGraphic" in2="effect1_dropShadow_2209_102971" result="shape"/>
</filter>
<clipPath id="clip0_2209_102971">
<rect width="12" height="12" fill="white" transform="translate(22 22)"/>
</clipPath>
</defs>
</svg>
