<svg width="41" height="40" viewBox="0 0 41 40" fill="none" xmlns="http://www.w3.org/2000/svg">
<rect x="0.5" width="40" height="40" rx="8" fill="white"/>
<path d="M21.1854 13.334C21.9357 13.3352 22.3159 13.3392 22.6444 13.349L22.7738 13.3532C22.9233 13.3585 23.0707 13.3652 23.2485 13.3735C23.9579 13.4063 24.4419 13.5185 24.8669 13.6835C25.3063 13.853 25.6774 14.0819 26.0479 14.4524C26.4179 14.823 26.6469 15.1952 26.8169 15.6335C26.9813 16.058 27.0935 16.5424 27.1269 17.2519C27.1348 17.4296 27.1412 17.5771 27.1465 17.7266L27.1507 17.856C27.1604 18.1845 27.1649 18.5647 27.1663 19.315L27.1668 19.8121C27.1669 19.8729 27.1669 19.9355 27.1669 20.0002L27.1668 20.1883L27.1664 20.6854C27.1651 21.4357 27.1612 21.8159 27.1514 22.1444L27.1471 22.2738C27.1419 22.4233 27.1352 22.5707 27.1269 22.7485C27.0941 23.4579 26.9813 23.9419 26.8169 24.3669C26.6474 24.8063 26.4179 25.1774 26.0479 25.5479C25.6774 25.9179 25.3046 26.1469 24.8669 26.3169C24.4419 26.4813 23.9579 26.5935 23.2485 26.6269C23.0707 26.6348 22.9233 26.6412 22.7738 26.6465L22.6444 26.6507C22.3159 26.6604 21.9357 26.6649 21.1854 26.6663L20.6883 26.6668C20.6275 26.6669 20.5649 26.6669 20.5002 26.6669L20.3121 26.6668L19.815 26.6664C19.0647 26.6651 18.6845 26.6612 18.356 26.6514L18.2266 26.6471C18.0771 26.6419 17.9296 26.6352 17.7519 26.6269C17.0424 26.5941 16.5591 26.4813 16.1335 26.3169C15.6946 26.1474 15.323 25.9179 14.9524 25.5479C14.5819 25.1774 14.3535 24.8046 14.1835 24.3669C14.0185 23.9419 13.9069 23.4579 13.8735 22.7485C13.8656 22.5707 13.8591 22.4233 13.8539 22.2738L13.8497 22.1444C13.84 21.8159 13.8355 21.4357 13.8341 20.6854L13.834 19.315C13.8352 18.5647 13.8392 18.1845 13.849 17.856L13.8532 17.7266C13.8585 17.5771 13.8652 17.4296 13.8735 17.2519C13.9063 16.5419 14.0185 16.0585 14.1835 15.6335C14.353 15.1946 14.5819 14.823 14.9524 14.4524C15.323 14.0819 15.6952 13.8535 16.1335 13.6835C16.5585 13.5185 17.0419 13.4069 17.7519 13.3735C17.9296 13.3656 18.0771 13.3591 18.2266 13.3539L18.356 13.3497C18.6845 13.34 19.0647 13.3355 19.815 13.3341L21.1854 13.334ZM20.5002 16.6669C18.6583 16.6669 17.1669 18.1599 17.1669 20.0002C17.1669 21.8421 18.6599 23.3335 20.5002 23.3335C22.3421 23.3335 23.8335 21.8405 23.8335 20.0002C23.8335 18.1583 22.3405 16.6669 20.5002 16.6669ZM20.5002 18.0002C21.6048 18.0002 22.5002 18.8953 22.5002 20.0002C22.5002 21.1048 21.6051 22.0002 20.5002 22.0002C19.3956 22.0002 18.5002 21.1051 18.5002 20.0002C18.5002 18.8956 19.3953 18.0002 20.5002 18.0002ZM24.0002 15.6669C23.5407 15.6669 23.1669 16.0401 23.1669 16.4996C23.1669 16.9591 23.5401 17.333 24.0002 17.333C24.4597 17.333 24.8335 16.9597 24.8335 16.4996C24.8335 16.0401 24.4591 15.6663 24.0002 15.6669Z" fill="#E40443"/>
</svg>
