<svg width="14" height="14" viewBox="0 0 14 14" fill="none" xmlns="http://www.w3.org/2000/svg">
<g clip-path="url(#clip0_739_4855)">
<path d="M10.7122 9.06345L9.88741 8.23745L10.7122 7.41262C10.985 7.14221 11.2017 6.82059 11.3499 6.46622C11.498 6.11184 11.5747 5.7317 11.5756 5.3476C11.5764 4.9635 11.5014 4.58302 11.3548 4.228C11.2082 3.87298 10.9929 3.55042 10.7213 3.27882C10.4497 3.00722 10.1271 2.79194 9.7721 2.64534C9.41708 2.49874 9.0366 2.42371 8.65251 2.42455C8.26841 2.42539 7.88827 2.50209 7.53389 2.65024C7.17952 2.7984 6.85789 3.01509 6.58749 3.28787L5.76265 4.11329L4.93724 3.28845L5.76324 2.46362C6.52905 1.69781 7.56772 1.26758 8.65074 1.26758C9.73376 1.26758 10.7724 1.69781 11.5382 2.46362C12.3041 3.22943 12.7343 4.2681 12.7343 5.35112C12.7343 6.43414 12.3041 7.47281 11.5382 8.23862L10.7128 9.06345H10.7122ZM9.06257 10.7131L8.23715 11.538C7.47134 12.3038 6.43268 12.734 5.34966 12.734C4.26663 12.734 3.22797 12.3038 2.46215 11.538C1.69634 10.7721 1.26611 9.73348 1.26611 8.65045C1.26611 7.56743 1.69634 6.52877 2.46215 5.76295L3.28757 4.93812L4.11241 5.76412L3.28757 6.58895C3.01479 6.85936 2.7981 7.18098 2.64995 7.53536C2.50179 7.88973 2.4251 8.26988 2.42425 8.65397C2.42341 9.03807 2.49845 9.41855 2.64505 9.77357C2.79164 10.1286 3.00692 10.4512 3.27852 10.7228C3.55012 10.9944 3.87269 11.2096 4.22771 11.3562C4.58273 11.5028 4.9632 11.5779 5.3473 11.577C5.7314 11.5762 6.11154 11.4995 6.46592 11.3513C6.82029 11.2032 7.14192 10.9865 7.41232 10.7137L8.23715 9.88887L9.06257 10.7137V10.7131ZM8.64957 4.5257L9.47499 5.35112L5.35024 9.47529L4.52482 8.65045L8.64957 4.52629V4.5257Z" fill="white"/>
</g>
<defs>
<clipPath id="clip0_739_4855">
<rect width="14" height="14" fill="white"/>
</clipPath>
</defs>
</svg>
