<?xml version="1.0" standalone="no"?>
<!DOCTYPE svg PUBLIC "-//W3C//DTD SVG 20010904//EN"
 "http://www.w3.org/TR/2001/REC-SVG-20010904/DTD/svg10.dtd">
<svg version="1.0" xmlns="http://www.w3.org/2000/svg"
 width="20.000000pt" height="20.000000pt" viewBox="0 0 20.000000 20.000000"
 preserveAspectRatio="xMidYMid meet">

<g transform="translate(0.000000,20.000000) scale(0.100000,-0.100000)"
fill="#000000" stroke="none">
<path d="M63 193 c-7 -2 -13 -12 -13 -21 1 -15 2 -15 11 1 12 21 23 22 43 1 9
-8 16 -11 16 -5 0 9 -33 32 -42 30 -2 0 -9 -3 -15 -6z"/>
<path d="M20 87 l0 -87 65 0 65 0 0 52 c0 40 -3 49 -12 40 -25 -25 -31 -11 -6
15 14 16 23 35 21 43 -4 13 -3 13 6 0 5 -8 6 -19 2 -25 -4 -5 -5 -35 -2 -65
l5 -55 6 65 c6 64 -1 100 -20 100 -6 0 -10 -10 -10 -22 0 -12 -8 -30 -17 -40
-25 -28 -26 -50 -2 -38 17 10 19 7 19 -25 l0 -35 -54 0 -54 0 -1 77 c-2 106
-11 106 -11 0z"/>
<path d="M53 113 c9 -2 25 -2 35 0 9 3 1 5 -18 5 -19 0 -27 -2 -17 -5z"/>
<path d="M53 93 c9 -2 23 -2 30 0 6 3 -1 5 -18 5 -16 0 -22 -2 -12 -5z"/>
<path d="M48 73 c7 -3 16 -2 19 1 4 3 -2 6 -13 5 -11 0 -14 -3 -6 -6z"/>
<path d="M50 50 c12 -8 12 -10 1 -10 -8 0 -12 -2 -9 -5 8 -8 48 -15 48 -8 0 8
-33 32 -45 33 -5 0 -3 -5 5 -10z"/>
<path d="M100 40 c0 -5 7 -10 15 -10 8 0 15 5 15 10 0 6 -7 10 -15 10 -8 0
-15 -4 -15 -10z"/>
</g>
</svg>
