<svg width="363" height="241" viewBox="0 0 363 241" fill="none" xmlns="http://www.w3.org/2000/svg">
<path opacity="0.1" d="M363.001 83.1906C363.001 78.2199 359.739 73.2492 353.215 69.4781L258.528 14.7537C245.48 7.21231 224.127 7.21231 211.078 14.7537L207.979 16.5444L207.867 16.4785L148.958 50.6571L9.79067 131.09C2.7412 135.166 -0.491754 140.64 0.0762214 146.003C0.0762214 146.001 0.0753561 145.996 0.0753561 145.994V165.551C-0.00776226 166.344 -0.00776226 167.139 0.0753561 167.933V167.935C0.555884 172.501 3.7897 176.984 9.79154 180.453L104.478 235.183C117.525 242.727 138.879 242.727 151.927 235.184L353.216 118.843C359.74 115.071 363.002 110.102 363.002 105.13L363.001 83.1906ZM4.05291 154.066C4.16287 154.183 4.27543 154.3 4.39058 154.416C4.27629 154.3 4.16374 154.183 4.05291 154.066ZM2.18448 151.698C2.23297 151.774 2.27972 151.848 2.33081 151.922C2.27886 151.848 2.2321 151.774 2.18448 151.698ZM3.35333 153.273C3.44338 153.383 3.53516 153.491 3.6304 153.598C3.53602 153.491 3.44425 153.383 3.35333 153.273ZM4.82695 154.849C4.95683 154.973 5.09189 155.097 5.22696 155.22C5.09189 155.097 4.95683 154.972 4.82695 154.849ZM6.59582 156.373C6.77504 156.511 6.96032 156.648 7.14734 156.786C6.96032 156.649 6.77417 156.512 6.59582 156.373ZM7.58631 157.109C7.80709 157.264 8.03826 157.415 8.26857 157.567C8.03826 157.416 7.80796 157.264 7.58631 157.109Z" fill="#070707"/>
<path d="M9.78589 149.419C-3.26196 141.876 -3.26196 129.535 9.78589 121.994L211.073 5.65605C224.121 -1.88535 245.474 -1.88535 258.524 5.65605L353.21 60.3813C366.258 67.9227 366.258 80.264 353.21 87.8063L151.922 204.15C138.873 211.69 117.519 211.69 104.472 204.147L9.78589 149.419Z" fill="#FAFBFF"/>
<path d="M363.002 74.0938C363.002 79.0644 359.739 84.0351 353.215 87.8063L151.927 204.151C138.878 211.691 117.525 211.691 104.478 204.148L9.7911 149.419C3.78926 145.95 0.554574 141.465 0.074912 136.899V156.455C-0.00820635 157.249 -0.00820635 158.043 0.074912 158.837V158.84C0.55544 163.405 3.78926 167.889 9.7911 171.359L104.478 226.088C117.525 233.632 138.878 233.632 151.927 226.089L353.215 109.747C359.739 105.975 363.002 101.006 363.002 96.035V74.0938Z" fill="#E7E9F2"/>
<path d="M36.3892 106.872L207.867 7.38281L348.432 90.795L176.205 190.164L36.3892 106.872Z" fill="url(#paint0_linear_3_37089)"/>
<path d="M65.1059 168.263C56.6659 163.386 56.6659 155.403 65.1059 150.525C73.5458 145.648 87.3573 145.648 95.7964 150.525C104.238 155.403 104.238 163.386 95.7964 168.263C87.3573 173.143 73.5458 173.143 65.1059 168.263Z" fill="#D8DAE5"/>
<path d="M67.8362 166.681C60.9036 162.671 60.9036 156.116 67.8362 152.109C74.7696 148.104 86.1153 148.104 93.0487 152.109C99.9813 156.116 99.9813 162.671 93.0487 166.681C86.1153 170.69 74.7696 170.69 67.8362 166.681Z" fill="#E7E9F2"/>
<path d="M42.0828 174.068C38.952 172.258 36.3892 173.088 36.3892 175.911C36.3892 178.735 38.952 182.525 42.0828 184.335L66.2286 198.291C69.3603 200.101 71.9222 199.273 71.9222 196.448C71.9222 193.625 69.3603 189.834 66.2286 188.024L42.0828 174.068Z" fill="#D8DAE5"/>
<path d="M296.34 126.127C299.473 124.317 302.035 125.146 302.035 127.97C302.035 130.793 299.473 134.585 296.34 136.395L272.194 150.35C269.064 152.161 266.501 151.33 266.501 148.507C266.501 145.683 269.064 141.893 272.194 140.082L296.34 126.127Z" fill="#D8DAE5"/>
<path d="M334.696 104.119C337.828 102.309 340.39 103.138 340.39 105.962C340.39 108.786 337.828 112.579 334.696 114.388L323.701 120.663C320.57 122.473 318.007 121.644 318.007 118.819C318.007 115.997 320.57 112.206 323.701 110.395L334.696 104.119Z" fill="#D8DAE5"/>
<path d="M282.402 30.3839C280.008 28.9711 276.082 28.9529 273.676 30.3449L272.677 30.9213C270.271 32.3132 270.26 34.6075 272.654 36.0202L296.341 50.0083C298.736 51.422 302.661 51.4402 305.067 50.0491L306.066 49.4718C308.473 48.0807 308.484 45.7874 306.089 44.3738L282.402 30.3839Z" fill="#D8DAE5"/>
<path opacity="0.2" d="M36.3892 106.87L348.432 90.793L176.205 190.162L36.3892 106.87Z" fill="white"/>
<path opacity="0.05" d="M118.72 129.357C116.327 127.943 112.4 127.926 109.994 129.318L108.995 129.894C106.588 131.285 106.578 133.58 108.971 134.994L132.659 148.982C135.053 150.397 138.979 150.414 141.386 149.024L142.385 148.446C144.792 147.055 144.802 144.76 142.408 143.348L118.72 129.357Z" fill="#070707"/>
<path d="M142.831 80.2538L119.854 66.9756C116.511 65.0436 113.449 64.7359 111.117 65.7855C110.687 65.9797 110.283 66.2215 109.904 66.5075L106.236 68.6891L107.261 70.4659C106.886 71.6594 106.681 73.0392 106.681 74.5898V101.145C106.681 109.52 112.61 119.796 119.854 123.984L121.002 124.648L127.907 138.359L134.333 133.136L142.83 137.264C144.178 138.042 145.481 138.558 146.706 138.826L147.802 140.723L152.09 138.192C154.503 136.823 156.003 133.864 156.003 129.651V103.093C156.003 94.7187 150.078 84.441 142.831 80.2538Z" fill="#E03D58"/>
<path d="M123.189 139.331L127.909 138.36L129.53 136.26L126.358 133.879L123.189 139.331Z" fill="#E03D58"/>
<path d="M139.041 82.5375L116.064 69.2592C108.819 65.073 102.891 68.4983 102.891 76.8734V103.43C102.891 111.803 108.819 122.08 116.064 126.267L117.213 126.931L123.201 139.331L129.624 134.107L139.042 139.549C146.288 143.737 152.214 140.311 152.214 131.938V105.378C152.213 97.0023 146.288 86.7247 139.041 82.5375Z" fill="#F15268"/>
<path d="M141.596 108.376C141.596 103.317 138.017 97.1068 133.64 94.5768C130.587 92.8122 127.924 93.2906 126.593 95.4557C125.138 92.3719 122.827 89.5732 120.23 88.072C115.853 85.5421 112.273 87.6118 112.273 92.6709C112.273 95.1575 113.14 97.9198 114.541 100.388H114.539L114.541 100.391C115.296 101.725 116.208 102.97 117.223 104.042L128.188 118.963L138.919 113.681C139.046 113.625 139.174 113.568 139.292 113.498L139.305 113.491H139.302C140.718 112.646 141.596 110.878 141.596 108.376Z" fill="white"/>
<path opacity="0.05" d="M245.918 56.5522C243.525 55.1385 239.598 55.1212 237.192 56.5132L236.192 57.0896C233.787 58.4824 233.775 60.7766 236.169 62.1894L259.857 76.1775C262.251 77.5911 266.178 77.6093 268.583 76.2182L269.581 75.6401C271.989 74.2499 272 71.9557 269.605 70.542L245.918 56.5522Z" fill="#070707"/>
<path d="M284.455 50.7455C284.457 39.1825 273.71 24.9889 260.576 19.2061C253.652 16.1561 247.394 16.0321 243.024 18.2891L243.023 18.2874L243.011 18.2952C242.578 18.5188 242.165 18.7701 241.771 19.0423L237.482 21.6217L238.411 22.6886C237.311 24.6145 236.699 26.9703 236.699 29.7169C236.699 38.0964 242.341 47.8541 250.445 54.7948L252.22 58.9586L251.129 67.4057L254.366 65.9574L260.068 61.0249C260.238 61.1029 260.407 61.1843 260.576 61.2606C265.506 63.4309 270.097 64.12 273.911 63.521L274.605 64.3193L278.087 62.1967C278.632 61.9185 279.149 61.6047 279.633 61.2537L279.647 61.2459C282.661 59.0513 284.455 55.4683 284.455 50.7455Z" fill="#2664BF"/>
<path d="M256.389 21.7262C243.256 15.9434 232.511 20.6731 232.511 32.2388C232.511 40.6192 238.154 50.3777 246.258 57.3167L251.131 67.4097L255.881 63.5458C256.05 63.623 256.218 63.7045 256.389 63.7807C269.522 69.5627 280.266 64.8312 280.266 53.2673C280.269 41.7043 269.522 27.5108 256.389 21.7262Z" fill="#5784CE"/>
<path d="M255.297 38.5336C253.438 37.7137 251.915 38.3845 251.915 40.0226C251.915 41.6599 253.438 43.6707 255.297 44.4906C257.158 45.3079 258.679 44.6379 258.679 43.0007C258.68 41.3617 257.158 39.3518 255.297 38.5336Z" fill="white"/>
<path d="M242.437 31.4824C240.578 30.6634 239.056 31.3333 239.056 32.9715C239.056 34.6096 240.578 36.6204 242.437 37.4394C244.298 38.2576 245.818 37.5877 245.818 35.9495C245.821 34.3114 244.299 32.3015 242.437 31.4824Z" fill="white"/>
<path d="M268.698 46.2865C266.836 45.4683 265.315 46.1383 265.315 47.7773C265.315 49.4137 266.837 51.4245 268.698 52.2435C270.557 53.0626 272.079 52.3926 272.079 50.7554C272.08 49.1173 270.558 47.1056 268.698 46.2865Z" fill="white"/>
<path opacity="0.05" d="M153.827 74.5912C151.434 73.1776 147.506 73.1603 145.1 74.5522L144.101 75.1286C141.695 76.5206 141.684 78.8148 144.078 80.2284L227.448 129.69C229.841 131.105 233.768 131.123 236.174 129.732L237.171 129.154C239.579 127.763 239.59 125.469 237.194 124.055L153.827 74.5912Z" fill="#070707"/>
<path d="M154.838 30.625V83.0517L220.367 120.923V68.4941L154.838 30.625Z" fill="#EFBA35"/>
<path d="M154.838 30.625L182.008 79.505L220.367 68.4941L154.838 30.625Z" fill="#FBD558"/>
<path d="M154.838 83.0517L176.837 70.1998L154.838 30.625V83.0517Z" fill="#F4C647"/>
<path d="M220.362 68.4922V120.921L193.227 76.2815L220.362 68.4922Z" fill="#F4C647"/>
<path d="M154.834 30.6204L160.897 27.5859L226.426 65.455V117.883L220.364 120.919V68.4894L154.834 30.6204Z" fill="#EFBA35"/>
<path d="M215.121 50.3646C206.109 45.1547 198.739 49.4156 198.739 59.8319C198.739 70.2491 206.109 83.0333 215.121 88.2407C224.129 93.448 231.502 89.1871 231.502 78.7716C231.502 68.3562 224.131 55.5728 215.121 50.3646Z" fill="#F15268"/>
<path d="M203.352 49.3509L203.359 49.3597C203.398 49.3343 203.435 49.3019 203.476 49.2773L203.352 49.3509Z" fill="#E03D58"/>
<path d="M225.825 89.7683L225.834 89.7805L225.939 89.7148C225.9 89.7306 225.865 89.7516 225.825 89.7683Z" fill="#E03D58"/>
<path d="M220.165 47.3225C215.8 44.7977 211.828 44.5143 208.884 46.0597L208.877 46.0484L208.763 46.1169C208.631 46.1888 208.504 46.2686 208.376 46.3483L203.597 49.2051C206.562 47.5219 210.634 47.7671 215.114 50.3569C224.123 55.566 231.495 68.3493 231.495 78.7648C231.495 83.2709 230.11 86.62 227.815 88.5528L230.511 86.8913C234.187 85.5366 236.548 81.619 236.548 75.7304C236.548 65.3158 229.177 52.5316 220.165 47.3225Z" fill="#E03D58"/>
<path d="M218.823 73.0604C218.82 73.8301 218.381 74.2599 217.834 74.0537L217.658 73.9861L217.657 75.8495C217.654 76.6097 217.232 77.0231 216.685 76.7977C216.141 76.5706 215.719 75.8201 215.72 75.0781L215.722 73.2554L210.209 71.1727L210.191 71.1657L210.174 71.1597C209.961 71.0799 209.751 70.9334 209.575 70.6665C209.135 70.0806 209.082 69.3083 209.417 68.8949L215.947 60.1384C215.964 60.1418 215.964 60.1175 215.982 60.0985C216 60.0785 216.018 60.0577 216.036 60.0144C216.089 60.0014 216.107 59.9815 216.124 59.9615C216.142 59.9407 216.178 59.9243 216.195 59.9043C216.23 59.887 216.248 59.8679 216.301 59.8792C216.318 59.835 216.336 59.8142 216.371 59.822C216.389 59.8021 216.424 59.8099 216.478 59.7977C216.496 59.8021 216.53 59.8099 216.549 59.7891C216.583 59.796 216.636 59.8081 216.671 59.8159C216.671 59.8159 216.69 59.8203 216.707 59.8237C216.725 59.8272 216.725 59.8272 216.742 59.8315C216.778 59.8393 216.832 59.8506 216.849 59.8549C216.884 59.887 216.902 59.8913 216.937 59.8991C216.953 59.9269 217.007 59.939 217.043 59.9711C217.06 59.9745 217.096 60.0066 217.114 60.0101C217.149 60.0673 217.184 60.0985 217.201 60.1279C217.236 60.16 217.253 60.1878 217.29 60.2207C217.29 60.2207 217.307 60.2242 217.307 60.2484C217.325 60.2519 217.362 60.284 217.362 60.3091C217.396 60.3646 217.414 60.394 217.433 60.4226C217.449 60.4512 217.466 60.5041 217.484 60.5318C217.501 60.5596 217.519 60.5891 217.555 60.6705C217.555 60.6948 217.572 60.7477 217.59 60.7771C217.608 60.83 217.608 60.8543 217.626 60.9323C217.626 60.9565 217.643 61.0094 217.643 61.0337C217.661 61.0874 217.661 61.1117 217.661 61.1854C217.661 61.2339 217.678 61.2625 217.678 61.3119C217.678 61.3362 217.678 61.3604 217.678 61.3847L217.664 71.2914L217.839 71.3521C218.385 71.541 218.824 72.3141 218.823 73.0604ZM215.732 64.6939L212.218 69.4002L215.724 70.618L215.732 64.6939Z" fill="#F15268"/>
<path d="M218.583 68.6016C218.583 70.4974 218.036 72.1502 217.23 73.2899C216.421 74.4334 215.442 74.9572 214.524 74.9572C213.606 74.9572 212.627 74.4334 211.818 73.2899C211.012 72.1502 210.466 70.4974 210.466 68.6016C210.466 66.7059 211.012 65.0531 211.818 63.9133C212.627 62.7699 213.606 62.2461 214.524 62.2461C215.442 62.2461 216.421 62.7699 217.23 63.9133C218.036 65.0531 218.583 66.7059 218.583 68.6016Z" stroke="white" stroke-width="3"/>
<defs>
<linearGradient id="paint0_linear_3_37089" x1="36.3887" y1="98.7731" x2="348.432" y2="98.7731" gradientUnits="userSpaceOnUse">
<stop stop-color="#FFCAFB"/>
<stop offset="1" stop-color="#FFDE6A"/>
</linearGradient>
</defs>
</svg>
