<svg width="40" height="40" viewBox="0 0 40 40" fill="none" xmlns="http://www.w3.org/2000/svg">
<rect width="40" height="40" rx="8" fill="white"/>
<path d="M18.2437 19.1214C18.868 20.2192 19.7808 21.132 20.8786 21.7563L21.4683 20.9307C21.6643 20.6563 22.0344 20.5715 22.3304 20.7332C23.2683 21.2455 24.3047 21.5569 25.3859 21.6425C25.7327 21.6699 26 21.9593 26 22.3071V25.2823C26 25.6241 25.7415 25.9105 25.4015 25.9454C25.0482 25.9817 24.6918 26 24.3333 26C18.6264 26 14 21.3736 14 15.6667C14 15.3082 14.0183 14.9518 14.0546 14.5985C14.0895 14.2585 14.376 14 14.7178 14H17.6929C18.0407 14 18.3301 14.2674 18.3575 14.6141C18.4431 15.6953 18.7545 16.7318 19.2668 17.6696C19.4285 17.9656 19.3437 18.3357 19.0693 18.5317L18.2437 19.1214ZM16.5628 18.6835L17.8295 17.7787C17.4703 17.0034 17.2242 16.1812 17.0982 15.3333H15.3394C15.3354 15.4442 15.3333 15.5553 15.3333 15.6667C15.3333 20.6372 19.3628 24.6667 24.3333 24.6667C24.4447 24.6667 24.5558 24.6647 24.6667 24.6606V22.9018C23.8188 22.7758 22.9966 22.5297 22.2213 22.1705L21.3165 23.4372C20.9505 23.295 20.5971 23.1277 20.2583 22.9374L20.2195 22.9153C18.9131 22.1725 17.8276 21.0869 17.0847 19.7805L17.0626 19.7417C16.8723 19.4029 16.705 19.0495 16.5628 18.6835Z" fill="#E40443"/>
</svg>
