<svg width="42" height="42" viewBox="0 0 42 42" fill="none" xmlns="http://www.w3.org/2000/svg">
<path d="M22.3438 8.90625V0.84375H0.84375V8.90625H2.1875V10.25H0.84375V41.1562H22.3438V10.25H21V8.90625H22.3438ZM21 33.0938H6.21875V15.625H21V33.0938ZM21 14.2812H4.875V34.4375H21V39.8125H2.1875V11.5938H3.53125V8.90625H19.6562V11.5938H21V14.2812ZM2.1875 7.5625V2.1875H21V7.5625H2.1875ZM37.7969 34.4375H32.4219C31.6926 34.4401 30.9844 34.6823 30.4062 35.1268V32.4219C30.4062 30.5666 28.9022 29.0625 27.0469 29.0625C25.1916 29.0625 23.6875 30.5666 23.6875 32.4219V37.7969C23.6822 39.6466 25.1774 41.1505 27.0271 41.1558C27.5539 41.1574 28.0736 41.0346 28.5439 40.7976C29.0143 40.5606 29.4222 40.2159 29.7344 39.7917C30.0444 40.2135 30.449 40.5567 30.9158 40.7937C31.3826 41.0306 31.8984 41.1548 32.4219 41.1562H37.7969C39.6522 41.1562 41.1562 39.6522 41.1562 37.7969C41.1562 35.9416 39.6522 34.4375 37.7969 34.4375ZM29.0625 37.7969C29.0625 38.9101 28.1601 39.8125 27.0469 39.8125C25.9337 39.8125 25.0312 38.9101 25.0312 37.7969V35.7812H29.0625V37.7969ZM29.0625 34.4375H25.0312V32.4219C25.0312 31.3087 25.9337 30.4062 27.0469 30.4062C28.1601 30.4062 29.0625 31.3087 29.0625 32.4219V34.4375ZM34.4375 39.8125H32.4219C31.3087 39.8125 30.4062 38.9101 30.4062 37.7969C30.4062 36.6837 31.3087 35.7812 32.4219 35.7812H34.4375V39.8125ZM37.7969 39.8125H35.7812V35.7812H37.7969C38.9101 35.7812 39.8125 36.6837 39.8125 37.7969C39.8125 38.9101 38.9101 39.8125 37.7969 39.8125Z" fill="#E40443"/>
<path d="M7.5625 18.3125H19.6562V19.6563H7.5625V18.3125ZM7.5625 22.3438H10.25V23.6875H7.5625V22.3438ZM11.5938 22.3438H19.6562V23.6875H11.5938V22.3438ZM34.4375 7.5625V4.875H29.0625V7.5625H26.375V12.9375H29.0625V15.625H34.4375V12.9375H37.125V7.5625H34.4375ZM35.7812 11.5938H33.0938V14.2813H30.4062V11.5938H27.7188V8.90625H30.4062V6.21875H33.0938V8.90625H35.7812V11.5938Z" fill="#E40443"/>
<path d="M31.75 2.1875C27.2972 2.1875 23.6875 5.79723 23.6875 10.25C23.6923 14.7008 27.2992 18.3077 31.75 18.3125C36.2028 18.3125 39.8125 14.7028 39.8125 10.25C39.8125 5.79723 36.2028 2.1875 31.75 2.1875ZM31.75 16.9688C28.0393 16.9688 25.0312 13.9607 25.0312 10.25C25.0354 6.541 28.041 3.53537 31.75 3.53125C35.4607 3.53125 38.4688 6.53932 38.4688 10.25C38.4688 13.9607 35.4607 16.9688 31.75 16.9688Z" fill="#E40443"/>
</svg>
