<svg width="48" height="48" viewBox="0 0 48 48" fill="none" xmlns="http://www.w3.org/2000/svg">
<path d="M23.5837 11.8894H24.6791C25.4833 11.8894 26.1403 11.2471 26.164 10.4486C26.9625 10.4249 27.6049 9.76793 27.6049 8.96371V7.86818C27.6049 7.06396 26.9625 6.40693 26.164 6.38326C26.1403 5.58471 25.4833 4.94238 24.6791 4.94238H23.5837C22.7795 4.94238 22.1225 5.58471 22.0988 6.38326C21.3003 6.40693 20.658 7.06396 20.658 7.86809V8.96363C20.658 9.76785 21.3003 10.4248 22.0988 10.4485C22.1224 11.2471 22.7795 11.8894 23.5837 11.8894ZM21.926 8.96363V7.86818C21.926 7.81052 21.949 7.75524 21.9897 7.71447C22.0305 7.67371 22.0858 7.65079 22.1435 7.65075H22.6871C23.0616 7.65075 23.3662 7.34607 23.3662 6.97165V6.42798C23.3663 6.37033 23.3892 6.31507 23.43 6.27431C23.4708 6.23354 23.526 6.21061 23.5837 6.21055H24.6791C24.7368 6.21061 24.792 6.23354 24.8328 6.27431C24.8736 6.31507 24.8965 6.37033 24.8966 6.42798V6.97165C24.8966 7.34615 25.2011 7.65075 25.5757 7.65075H26.1193C26.177 7.65081 26.2323 7.67375 26.2731 7.71453C26.3138 7.75531 26.3368 7.81059 26.3368 7.86826V8.96371C26.3368 9.02136 26.3138 9.07663 26.2731 9.11739C26.2323 9.15815 26.1771 9.18108 26.1194 9.18115H25.5757C25.2011 9.18115 24.8966 9.48583 24.8966 9.86025V10.4039C24.8965 10.4616 24.8736 10.5168 24.8328 10.5576C24.792 10.5984 24.7368 10.6213 24.6791 10.6214H23.5837C23.526 10.6214 23.4708 10.5984 23.43 10.5577C23.3892 10.5169 23.3663 10.4616 23.3662 10.404V9.86033C23.3662 9.48583 23.0616 9.18123 22.6871 9.18123H22.1435C22.0858 9.18114 22.0305 9.15819 21.9897 9.11739C21.949 9.0766 21.926 9.02131 21.926 8.96363Z" fill="#E40443"/>
<path d="M36.784 30.815L28.8825 27.8519C28.7809 27.8135 28.6934 27.7451 28.6316 27.6559C28.5697 27.5666 28.5365 27.4607 28.5361 27.3521V24.5509C30.4765 23.2575 31.8361 21.1587 32.1329 18.7358C33.639 18.6165 34.8285 17.3536 34.8285 15.8173C34.8285 14.3017 33.6713 13.0516 32.1943 12.9035V6.92625C32.1943 5.78912 31.5913 4.7148 30.6206 4.12252L29.0787 3.18161C28.2812 2.69491 27.365 2.43745 26.4308 2.4375H21.5852C20.6509 2.43745 19.7347 2.69491 18.9373 3.18161L17.3953 4.12252C16.4246 4.7148 15.8217 5.78912 15.8217 6.92625V12.8963C14.2996 12.9993 13.0927 14.2696 13.0927 15.8173C13.0927 17.386 14.3325 18.6704 15.8838 18.7425C16.1823 21.1625 17.5412 23.2587 19.4798 24.5509V27.3521C19.4795 27.4607 19.4462 27.5666 19.3843 27.6559C19.3225 27.7451 19.235 27.8135 19.1335 27.8519L11.232 30.815C8.439 31.8624 6.5625 34.5702 6.5625 37.553V41.4515C6.5625 41.6196 6.6293 41.7809 6.74821 41.8998C6.86711 42.0187 7.02838 42.0855 7.19654 42.0855C7.3647 42.0855 7.52597 42.0187 7.64487 41.8998C7.76378 41.7809 7.83058 41.6196 7.83058 41.4515V37.553C7.83058 35.0958 9.37645 32.8651 11.6772 32.0023L14.1256 31.0842V35.1415C13.0448 35.4233 12.2447 36.4076 12.2447 37.5754C12.2447 38.9622 13.3728 40.0904 14.7596 40.0904C16.1464 40.0904 17.2746 38.9622 17.2746 37.5754C17.2746 36.4076 16.4744 35.4233 15.3937 35.1415V30.6086L15.7562 30.4727C15.7732 30.4884 15.791 30.5036 15.8101 30.5178L17.3794 31.6819C19.3109 33.1149 21.603 33.8722 24.0081 33.8722C26.4129 33.8722 28.7052 33.1149 30.6366 31.6819L32.2088 30.5156C32.227 30.5022 32.2441 30.4878 32.2604 30.473L33.1378 30.802V34.6116C31.5554 34.718 30.3003 36.0384 30.3003 37.6473V42.6688C30.3003 42.837 30.3671 42.9983 30.4861 43.1172C30.605 43.2361 30.7662 43.3029 30.9344 43.3029H31.9C32.2502 43.3029 32.534 43.019 32.534 42.6688C32.534 42.3187 32.2502 42.0348 31.9 42.0348H31.5684V37.6473C31.5684 36.6684 32.3649 35.8719 33.3437 35.8719H34.1278C35.1067 35.8719 35.9031 36.6684 35.9031 37.6473V42.0348H35.5749C35.4067 42.0348 35.2455 42.1016 35.1265 42.2205C35.0076 42.3394 34.9408 42.5007 34.9408 42.6688C34.9408 42.837 35.0076 42.9983 35.1265 43.1172C35.2455 43.2361 35.4067 43.3029 35.5749 43.3029H36.5372C36.7053 43.3029 36.8666 43.2361 36.9855 43.1172C37.1044 42.9983 37.1712 42.837 37.1712 42.6688V37.6473C37.1712 36.063 35.9541 34.7581 34.4059 34.6171V31.2776L36.3387 32.0024C38.6395 32.8652 40.1854 35.0959 40.1854 37.5531V44.2672C40.1853 44.2744 40.1825 44.2813 40.1774 44.2864C40.1723 44.2915 40.1654 44.2944 40.1582 44.2944H7.8578C7.85059 44.2944 7.84368 44.2915 7.83858 44.2864C7.83348 44.2813 7.8306 44.2744 7.83058 44.2672V43.9876C7.83058 43.8195 7.76378 43.6582 7.64487 43.5393C7.52597 43.4204 7.3647 43.3536 7.19654 43.3536C7.02838 43.3536 6.86711 43.4204 6.74821 43.5393C6.6293 43.6582 6.5625 43.8195 6.5625 43.9876V44.2672C6.5625 44.9814 7.14362 45.5625 7.8578 45.5625H40.1581C40.8723 45.5625 41.4534 44.9814 41.4534 44.2672V37.5531C41.4534 34.5702 39.5769 31.8624 36.784 30.815ZM16.0065 37.5754C16.0065 38.2629 15.4472 38.8223 14.7596 38.8223C14.0721 38.8223 13.5128 38.2629 13.5128 37.5754C13.5128 36.8878 14.0721 36.3285 14.7596 36.3285C15.4472 36.3285 16.0065 36.8878 16.0065 37.5754ZM33.5604 15.8174C33.5604 16.6325 32.9697 17.3107 32.1943 17.4503V14.1846C32.9697 14.324 33.5604 15.0024 33.5604 15.8174ZM14.3607 15.8174C14.3607 14.9694 15 14.2692 15.8216 14.1701V17.4648C15 17.3657 14.3607 16.6653 14.3607 15.8174ZM17.0898 17.7345V14.1642H20.5637C20.7319 14.1642 20.8931 14.0974 21.012 13.9785C21.1309 13.8596 21.1977 13.6983 21.1977 13.5301C21.1977 13.362 21.1309 13.2007 21.012 13.0818C20.8931 12.9629 20.7319 12.8961 20.5637 12.8961H17.0898V6.92625C17.0898 6.22813 17.4599 5.56856 18.0559 5.20496L19.5978 4.26413C20.1963 3.89879 20.884 3.70553 21.5852 3.70558H26.4308C27.132 3.70554 27.8196 3.8988 28.4182 4.26413L29.9601 5.20496C30.556 5.56856 30.9262 6.22813 30.9262 6.92625V12.8961H23.0999C22.9317 12.8961 22.7704 12.9629 22.6515 13.0818C22.5326 13.2007 22.4658 13.362 22.4658 13.5301C22.4658 13.6983 22.5326 13.8596 22.6515 13.9785C22.7704 14.0974 22.9317 14.1642 23.0999 14.1642H30.9262V17.7345C30.9262 21.5492 27.8227 24.6527 24.008 24.6527C20.1933 24.6527 17.0898 21.5492 17.0898 17.7345ZM29.881 30.6636C28.1697 31.9332 26.1388 32.6043 24.008 32.6043C21.8771 32.6043 19.8462 31.9332 18.1349 30.6636L17.1653 29.9443L19.5786 29.0393C20.2779 28.7771 20.7478 28.0991 20.7478 27.3522V25.2429C21.7474 25.6786 22.8498 25.9209 24.008 25.9209C25.1661 25.9209 26.2685 25.6786 27.268 25.2429V27.3522C27.268 28.0991 27.738 28.7771 28.4372 29.0393L30.8505 29.9443L29.881 30.6636Z" fill="#E40443"/>
</svg>
