<svg width="48" height="48" viewBox="0 0 48 48" fill="none" xmlns="http://www.w3.org/2000/svg">
<path d="M40.0906 36.1465C39.9976 36.1464 39.9056 36.1647 39.8197 36.2002C39.7338 36.2358 39.6557 36.2879 39.59 36.3537C39.5242 36.4194 39.4721 36.4974 39.4366 36.5833C39.401 36.6692 39.3828 36.7613 39.3828 36.8543V37.2226C39.3828 37.6139 39.6994 37.9304 40.0906 37.9304C40.4818 37.9304 40.7984 37.6139 40.7984 37.2226V36.8543C40.7984 36.7613 40.7801 36.6692 40.7446 36.5834C40.709 36.4975 40.6569 36.4194 40.5911 36.3537C40.5254 36.288 40.4474 36.2358 40.3615 36.2003C40.2756 36.1647 40.1835 36.1464 40.0906 36.1465Z" fill="#E40443"/>
<path d="M3.61395 19.6212H7.19477V44.8936H4.47098C4.07975 44.8936 3.7632 45.2102 3.7632 45.6014C3.7632 45.9926 4.07975 46.3092 4.47098 46.3092C42.3253 46.3099 41.5964 46.3092 43.522 46.3092C43.9133 46.3092 44.2298 45.9926 44.2298 45.6014C44.2298 45.2102 43.9133 44.8936 43.522 44.8936H40.7982V40.4565C40.7982 40.0653 40.4817 39.7487 40.0905 39.7487C39.6992 39.7487 39.3827 40.0653 39.3827 40.4565V44.8936H8.61023V18.9135C8.61029 18.8206 8.59202 18.7285 8.55647 18.6426C8.52093 18.5567 8.46879 18.4787 8.40306 18.4129C8.33732 18.3472 8.25928 18.2951 8.17338 18.2595C8.08748 18.224 7.99542 18.2057 7.90246 18.2058H5.61139L23.9966 3.3061L42.3879 18.2058H40.0905C39.9975 18.2057 39.9054 18.224 39.8195 18.2595C39.7336 18.2951 39.6556 18.3472 39.5899 18.4129C39.5241 18.4787 39.472 18.5567 39.4365 18.6426C39.4009 18.7285 39.3826 18.8206 39.3827 18.9135V33.6197C39.3827 34.0109 39.6992 34.3275 40.0905 34.3275C40.4817 34.3275 40.7982 34.0109 40.7982 33.6197V19.6212H44.386C44.6859 19.6212 44.9527 19.4325 45.0529 19.1499C45.1532 18.8672 45.0647 18.552 44.8318 18.3634L24.4423 1.84506C24.3161 1.74311 24.1588 1.6875 23.9966 1.6875C23.8343 1.6875 23.677 1.74311 23.5508 1.84506L3.16817 18.3634C3.05458 18.4555 2.97233 18.5806 2.93272 18.7214C2.8931 18.8622 2.89806 19.0118 2.94692 19.1497C2.99578 19.2876 3.08614 19.4069 3.20558 19.4913C3.32502 19.5758 3.46768 19.6212 3.61395 19.6212Z" fill="#E40443"/>
<path d="M25.4776 42.841C29.1075 42.841 32.0608 39.8877 32.0608 36.2578V33.9435C33.4702 33.6212 34.5275 32.3627 34.5275 30.8572C34.5275 29.1086 33.1044 27.6855 31.3559 27.6855C29.6038 27.6855 28.1779 29.1086 28.1779 30.8572C28.1779 32.3612 29.2353 33.6183 30.6454 33.9422V36.2577C30.6454 39.1073 28.3273 41.4254 25.4777 41.4254C22.6288 41.4254 20.3107 39.1073 20.3107 36.2577V32.6009C23.3584 32.2484 25.7334 29.6553 25.7334 26.5146V22.318C25.7335 22.2251 25.7152 22.133 25.6797 22.0471C25.6441 21.9612 25.592 21.8832 25.5263 21.8174C25.4605 21.7517 25.3825 21.6995 25.2966 21.664C25.2107 21.6285 25.1186 21.6102 25.0257 21.6102H23.2052C22.814 21.6102 22.4974 21.9268 22.4974 22.318C22.4974 22.7092 22.814 23.0258 23.2052 23.0258H24.318V26.5147C24.318 29.1148 22.2031 31.2297 19.603 31.2297C17.0029 31.2297 14.888 29.1148 14.888 26.5147V23.0258H16.0001C16.3913 23.0258 16.7078 22.7092 16.7078 22.318C16.7078 21.9268 16.3913 21.6102 16.0001 21.6102H14.1802C14.0873 21.6102 13.9952 21.6285 13.9093 21.664C13.8234 21.6995 13.7454 21.7517 13.6796 21.8174C13.6139 21.8832 13.5618 21.9612 13.5262 22.0471C13.4907 22.133 13.4724 22.2251 13.4725 22.318V26.5146C13.4725 29.6553 15.8475 32.2484 18.8952 32.6009V36.2577C18.8952 39.8877 21.8478 42.841 25.4776 42.841ZM29.5934 30.8572C29.5934 29.8889 30.3841 29.101 31.3559 29.101C32.3242 29.101 33.1121 29.8889 33.1121 30.8572C33.1121 31.8256 32.3242 32.6134 31.3559 32.6134C30.3841 32.6134 29.5934 31.8255 29.5934 30.8572ZM25.562 8.33691H22.4374C22.3444 8.33685 22.2523 8.35512 22.1664 8.39067C22.0805 8.42622 22.0025 8.47835 21.9368 8.54408C21.871 8.60982 21.8189 8.68787 21.7833 8.77376C21.7478 8.85966 21.7295 8.95172 21.7296 9.04469V12.1728C21.7295 12.2658 21.7478 12.3579 21.7833 12.4438C21.8189 12.5297 21.871 12.6077 21.9368 12.6735C22.0025 12.7392 22.0805 12.7913 22.1664 12.8269C22.2523 12.8624 22.3444 12.8807 22.4374 12.8806H25.562C25.6549 12.8807 25.747 12.8624 25.8329 12.8269C25.9188 12.7913 25.9969 12.7392 26.0626 12.6735C26.1283 12.6077 26.1805 12.5297 26.216 12.4438C26.2516 12.3579 26.2698 12.2658 26.2698 12.1728V9.04469C26.2698 8.95173 26.2515 8.85967 26.216 8.77378C26.1804 8.68789 26.1283 8.60984 26.0626 8.54411C25.9968 8.47838 25.9188 8.42625 25.8329 8.39069C25.747 8.35514 25.6549 8.33687 25.562 8.33691ZM24.8542 11.4651H23.145V9.75246H24.8542V11.4651ZM18.8364 14.4135V17.5417C18.8364 17.6346 18.8546 17.7267 18.8902 17.8126C18.9257 17.8985 18.9779 17.9766 19.0436 18.0423C19.1093 18.108 19.1874 18.1602 19.2733 18.1957C19.3592 18.2312 19.4512 18.2495 19.5442 18.2495H22.6688C22.7618 18.2495 22.8538 18.2312 22.9397 18.1957C23.0256 18.1602 23.1037 18.108 23.1694 18.0423C23.2352 17.9766 23.2873 17.8985 23.3228 17.8126C23.3584 17.7267 23.3766 17.6346 23.3766 17.5417V14.4135C23.3766 14.3206 23.3584 14.2285 23.3228 14.1426C23.2873 14.0567 23.2352 13.9787 23.1694 13.9129C23.1037 13.8472 23.0256 13.7951 22.9397 13.7595C22.8538 13.724 22.7618 13.7057 22.6688 13.7058H19.5442C19.4512 13.7057 19.3592 13.724 19.2733 13.7595C19.1874 13.7951 19.1093 13.8472 19.0436 13.9129C18.9779 13.9787 18.9257 14.0567 18.8902 14.1426C18.8546 14.2285 18.8364 14.3206 18.8364 14.4135ZM20.2519 15.1212H21.961V16.8338H20.2519V15.1212ZM24.6234 14.4135V17.5417C24.6233 17.6346 24.6416 17.7267 24.6771 17.8126C24.7127 17.8985 24.7648 17.9766 24.8306 18.0423C24.8963 18.108 24.9743 18.1602 25.0602 18.1957C25.1461 18.2312 25.2382 18.2495 25.3312 18.2495H28.4558C28.5488 18.2495 28.6408 18.2312 28.7267 18.1957C28.8126 18.1602 28.8907 18.108 28.9564 18.0423C29.0221 17.9766 29.0743 17.8985 29.1098 17.8126C29.1454 17.7267 29.1636 17.6346 29.1636 17.5417V14.4135C29.1636 14.3206 29.1454 14.2285 29.1098 14.1426C29.0743 14.0567 29.0221 13.9787 28.9564 13.9129C28.8907 13.8472 28.8126 13.7951 28.7267 13.7595C28.6408 13.724 28.5488 13.7057 28.4558 13.7058H25.3312C25.2382 13.7057 25.1461 13.724 25.0602 13.7595C24.9743 13.7951 24.8963 13.8472 24.8306 13.9129C24.7648 13.9787 24.7127 14.0567 24.6771 14.1426C24.6416 14.2285 24.6233 14.3206 24.6234 14.4135ZM26.0388 15.1212H27.748V16.8338H26.0388V15.1212Z" fill="#E40443"/>
</svg>
