<svg width="48" height="48" viewBox="0 0 48 48" fill="none" xmlns="http://www.w3.org/2000/svg">
<path d="M36.375 17.25C37.1484 17.25 37.875 17.3965 38.5547 17.6895C39.2344 17.9824 39.8262 18.3867 40.3301 18.9023C40.834 19.418 41.2383 20.0156 41.543 20.6953C41.8477 21.375 42 22.1016 42 22.875C42 23.543 41.8887 24.1816 41.666 24.791C41.4434 25.4004 41.1328 25.9453 40.7344 26.4258C40.3359 26.9062 39.8613 27.3223 39.3105 27.6738C38.7598 28.0254 38.1562 28.2656 37.5 28.3945V30.1875C37.5 31.2305 37.3711 32.2441 37.1133 33.2285C36.8555 34.2129 36.4922 35.1504 36.0234 36.041C35.5547 36.9316 34.9805 37.7344 34.3008 38.4492C33.6211 39.1641 32.8652 39.791 32.0332 40.3301C31.2012 40.8691 30.293 41.2793 29.3086 41.5605C28.3242 41.8418 27.3047 41.9883 26.25 42C25.1836 42 24.1641 41.8535 23.1914 41.5605C22.2188 41.2676 21.3164 40.8574 20.4844 40.3301C19.6523 39.8027 18.8965 39.1758 18.2168 38.4492C17.5371 37.7227 16.9629 36.9199 16.4941 36.041C16.0254 35.1621 15.6562 34.2305 15.3867 33.2461C15.1172 32.2617 14.9883 31.2422 15 30.1875V26.1621C13.5586 26.0332 12.2812 25.6875 11.168 25.125C10.0547 24.5625 9.11133 23.8242 8.33789 22.9102C7.56445 21.9961 6.98438 20.9355 6.59766 19.7285C6.21094 18.5215 6.01172 17.2148 6 15.8086V6H11.625C11.9297 6 12.1934 6.11133 12.416 6.33398C12.6387 6.55664 12.75 6.82031 12.75 7.125C12.75 7.42969 12.6387 7.69336 12.416 7.91602C12.1934 8.13867 11.9297 8.25 11.625 8.25H8.25V15.8086C8.25 17.0508 8.41992 18.1758 8.75977 19.1836C9.09961 20.1914 9.60938 21.0527 10.2891 21.7676C10.9688 22.4824 11.7891 23.0332 12.75 23.4199C13.7109 23.8066 14.8359 24 16.125 24C17.3086 24 18.3867 23.8184 19.3594 23.4551C20.332 23.0918 21.1582 22.5703 21.8379 21.8906C22.5176 21.2109 23.0508 20.3906 23.4375 19.4297C23.8242 18.4688 24.0117 17.3848 24 16.1777V8.25H20.625C20.3203 8.25 20.0566 8.13867 19.834 7.91602C19.6113 7.69336 19.5 7.42969 19.5 7.125C19.5 6.82031 19.6113 6.55664 19.834 6.33398C20.0566 6.11133 20.3203 6 20.625 6H26.25V15.8086C26.25 17.2148 26.0508 18.5215 25.6523 19.7285C25.2539 20.9355 24.6738 21.9961 23.9121 22.9102C23.1504 23.8242 22.2129 24.5625 21.0996 25.125C19.9863 25.6875 18.7031 26.0332 17.25 26.1621V30.1875C17.25 31.4414 17.4727 32.6426 17.918 33.791C18.3633 34.9395 18.9902 35.959 19.7988 36.8496C20.6074 37.7402 21.5566 38.4434 22.6465 38.959C23.7363 39.4746 24.9375 39.7383 26.25 39.75C27.5508 39.75 28.7461 39.4863 29.8359 38.959C30.9258 38.4316 31.875 37.7285 32.6836 36.8496C33.4922 35.9707 34.1191 34.957 34.5645 33.8086C35.0098 32.6602 35.2383 31.4531 35.25 30.1875V28.3945C34.5938 28.2539 33.9902 28.0137 33.4395 27.6738C32.8887 27.334 32.4141 26.9238 32.0156 26.4434C31.6172 25.9629 31.3066 25.4121 31.084 24.791C30.8613 24.1699 30.75 23.5312 30.75 22.875C30.75 22.1016 30.8965 21.375 31.1895 20.6953C31.4824 20.0156 31.8809 19.4238 32.3848 18.9199C32.8887 18.416 33.4863 18.0117 34.1777 17.707C34.8691 17.4023 35.6016 17.25 36.375 17.25ZM36.375 26.25C36.8438 26.25 37.2832 26.1621 37.6934 25.9863C38.1035 25.8105 38.4609 25.5703 38.7656 25.2656C39.0703 24.9609 39.3105 24.6035 39.4863 24.1934C39.6621 23.7832 39.75 23.3438 39.75 22.875C39.75 22.4062 39.6621 21.9668 39.4863 21.5566C39.3105 21.1465 39.0703 20.7891 38.7656 20.4844C38.4609 20.1797 38.1035 19.9395 37.6934 19.7637C37.2832 19.5879 36.8438 19.5 36.375 19.5C35.9062 19.5 35.4668 19.5879 35.0566 19.7637C34.6465 19.9395 34.2891 20.1797 33.9844 20.4844C33.6797 20.7891 33.4395 21.1465 33.2637 21.5566C33.0879 21.9668 33 22.4062 33 22.875C33 23.3438 33.0879 23.7832 33.2637 24.1934C33.4395 24.6035 33.6797 24.9609 33.9844 25.2656C34.2891 25.5703 34.6465 25.8105 35.0566 25.9863C35.4668 26.1621 35.9062 26.25 36.375 26.25Z" fill="#E40443"/>
</svg>
