<svg width="20" height="20" viewBox="0 0 20 20" fill="none" xmlns="http://www.w3.org/2000/svg">
<g clip-path="url(#clip0_3_37194)">
<path d="M10.4068 15.4445C10.1539 15.303 9.84565 15.303 9.59275 15.4445L5.69871 17.6243C5.07821 17.9716 4.33575 17.4322 4.47431 16.7347L5.34389 12.3575C5.40037 12.0733 5.30509 11.7801 5.0923 11.5833L1.81546 8.55328C1.29335 8.07049 1.57691 7.19765 2.28308 7.1139L6.71494 6.58828C7.00272 6.55415 7.25211 6.37296 7.3735 6.10982L9.24309 2.05702C9.54095 1.41133 10.4586 1.41133 10.7565 2.05702L12.6261 6.10982C12.7475 6.37296 12.9969 6.55415 13.2846 6.58828L17.7165 7.1139C18.4227 7.19765 18.7062 8.07049 18.1841 8.55328L14.9073 11.5833C14.6945 11.7801 14.5992 12.0733 14.6557 12.3575L15.5253 16.7347C15.6638 17.4322 14.9214 17.9716 14.3009 17.6243L10.4068 15.4445Z" fill="#38404A"/>
</g>
<defs>
<clipPath id="clip0_3_37194">
<rect width="20" height="20" fill="white"/>
</clipPath>
</defs>
</svg>
