<svg width="32" height="32" viewBox="0 0 32 32" fill="none" xmlns="http://www.w3.org/2000/svg">
<g clip-path="url(#clip0_3_21306)">
<path d="M16.6513 24.7105C16.2466 24.484 15.7534 24.484 15.3487 24.7105L9.11827 28.198C8.12548 28.7538 6.93754 27.8907 7.15924 26.7748L8.55057 19.7713C8.64093 19.3165 8.48848 18.8474 8.14802 18.5325L2.90507 13.6845C2.0697 12.912 2.5234 11.5155 3.65327 11.3815L10.7443 10.5405C11.2047 10.4859 11.6037 10.196 11.7979 9.77493L14.7893 3.29044C15.2659 2.25735 16.7341 2.25735 17.2107 3.29045L20.2021 9.77493C20.3963 10.196 20.7953 10.4859 21.2557 10.5405L28.3467 11.3815C29.4766 11.5155 29.9303 12.912 29.0949 13.6845L23.852 18.5325C23.5115 18.8474 23.3591 19.3165 23.4494 19.7713L24.8408 26.7748C25.0625 27.8907 23.8745 28.7538 22.8817 28.198L16.6513 24.7105Z" fill="#EEF0F3"/>
</g>
<defs>
<clipPath id="clip0_3_21306">
<rect width="32" height="32" fill="white"/>
</clipPath>
</defs>
</svg>
