<svg width="200" height="200" viewBox="0 0 200 200" fill="none" xmlns="http://www.w3.org/2000/svg">
<path d="M189.365 116.564L189.306 116.593C182.451 121.85 179.546 130.797 181.986 139.076L182.015 139.134C185.907 152.293 176.264 165.567 162.553 165.916H162.495C153.839 166.148 146.229 171.667 143.353 179.829V179.858C138.763 192.813 123.136 197.896 111.836 190.082C104.82 185.291 95.5446 185.041 88.1626 190.082H88.1336C76.8344 197.867 61.2067 192.813 56.6461 179.829C55.2385 175.845 52.655 172.382 49.2371 169.898C45.8192 167.413 41.7279 166.025 37.504 165.915H37.4458C23.7356 165.566 14.0915 152.292 17.984 139.134L18.0129 139.075C20.4524 130.796 17.5477 121.85 10.693 116.593L10.6348 116.564C-0.258154 108.198 -0.258154 91.8152 10.6348 83.4496L10.693 83.4207C17.5477 78.1632 20.4524 69.2164 17.984 60.9378V60.8796C14.0622 47.7214 23.7352 34.4464 37.4458 34.098H37.504C46.1309 33.8656 53.7704 28.3464 56.6461 20.1843V20.1554C61.2063 7.20033 76.8344 2.11713 88.1336 9.93119H88.1626C95.279 14.8402 104.69 14.8402 111.836 9.93119C123.25 2.04955 138.79 7.27807 143.353 20.1554V20.1843C146.229 28.3175 153.839 33.866 162.495 34.098H162.553C176.264 34.4464 185.907 47.7214 182.015 60.8796L181.986 60.9378C179.546 69.2164 182.451 78.1632 189.306 83.4207L189.365 83.4496C200.257 91.8152 200.257 108.198 189.365 116.564Z" fill="#3EB655"/>
<path d="M100 154.108C129.883 154.108 154.108 129.883 154.108 100C154.108 70.1169 129.883 45.8918 100 45.8918C70.1169 45.8918 45.8918 70.1169 45.8918 100C45.8918 129.883 70.1169 154.108 100 154.108Z" fill="#8BD399"/>
<path opacity="0.2" d="M141.545 65.3643C132.186 57.6651 120.212 53.0374 107.159 53.0374C77.2761 53.0374 53.0378 77.2756 53.0378 107.158C53.0378 120.212 57.6656 132.185 65.3644 141.544C53.4734 131.625 45.8992 116.705 45.8992 99.9991C45.8992 70.1159 70.1167 45.8987 99.9996 45.8987C116.705 45.8987 131.626 53.4729 141.545 65.3643Z" fill="white"/>
<path d="M87.1269 121.182L75.1617 108.452C72.0281 105.118 72.1898 99.8754 75.523 96.7419C78.8562 93.6044 84.1011 93.7727 87.232 97.1047L92.9437 103.179L117.222 75.4297C120.232 71.986 125.466 71.6368 128.912 74.6504C132.356 77.6641 132.704 82.8969 129.692 86.3407L99.3968 120.964C96.1695 124.648 90.4738 124.745 87.1269 121.182Z" fill="white"/>
</svg>
