<svg width="16" height="16" viewBox="0 0 16 16" fill="none" xmlns="http://www.w3.org/2000/svg">
<g id="time">
<path id="Vector" d="M8.00004 14.6673C4.31814 14.6673 1.33337 11.6825 1.33337 8.00065C1.33337 4.31875 4.31814 1.33398 8.00004 1.33398C11.6819 1.33398 14.6667 4.31875 14.6667 8.00065C14.6667 11.6825 11.6819 14.6673 8.00004 14.6673ZM8.00004 13.334C10.9456 13.334 13.3334 10.9462 13.3334 8.00065C13.3334 5.05513 10.9456 2.66732 8.00004 2.66732C5.05452 2.66732 2.66671 5.05513 2.66671 8.00065C2.66671 10.9462 5.05452 13.334 8.00004 13.334ZM8.66671 8.00065H11.3334V9.33398H7.33337V4.66732H8.66671V8.00065Z" fill="#5B6572"/>
</g>
</svg>
