<svg width="24" height="25" viewBox="0 0 24 25" fill="none" xmlns="http://www.w3.org/2000/svg">
<g clip-path="url(#clip0_3_17741)">
<path d="M1 15.0598C0.999385 13.9553 1.28042 12.8688 1.81655 11.9031C2.35268 10.9374 3.1262 10.1244 4.064 9.54082C4.31151 7.61091 5.2538 5.83733 6.71452 4.55198C8.17524 3.26663 10.0543 2.55762 12 2.55762C13.9457 2.55762 15.8248 3.26663 17.2855 4.55198C18.7462 5.83733 19.6885 7.61091 19.936 9.54082C21.0992 10.2645 22.0041 11.3372 22.5213 12.6058C23.0385 13.8744 23.1417 15.2739 22.8161 16.6047C22.4906 17.9354 21.7528 19.1292 20.7083 20.0157C19.6638 20.9022 18.366 21.4359 17 21.5408L7 21.5598C3.644 21.2858 1 18.4818 1 15.0598ZM16.848 19.5468C17.7938 19.4741 18.6925 19.1043 19.4156 18.4904C20.1387 17.8764 20.6493 17.0496 20.8745 16.1281C21.0996 15.2065 21.0278 14.2375 20.6692 13.3592C20.3107 12.481 19.6837 11.7385 18.878 11.2378L18.071 10.7348L17.951 9.79282C17.7641 8.34651 17.0569 7.01776 15.9616 6.05491C14.8663 5.09206 13.4578 4.56101 11.9995 4.56101C10.5412 4.56101 9.13272 5.09206 8.03742 6.05491C6.94213 7.01776 6.23493 8.34651 6.048 9.79282L5.928 10.7348L5.123 11.2378C4.3173 11.7384 3.69038 12.4808 3.3318 13.359C2.97321 14.2371 2.90129 15.2062 3.12631 16.1276C3.35133 17.0491 3.86177 17.8759 4.58475 18.49C5.30773 19.104 6.20625 19.4739 7.152 19.5468L7.325 19.5598H16.675L16.848 19.5468ZM13 13.5598V17.5598H11V13.5598H8L12 8.55982L16 13.5598H13Z" fill="#5B6572"/>
</g>
<defs>
<clipPath id="clip0_3_17741">
<rect width="24" height="24" fill="white" transform="translate(0 0.560059)"/>
</clipPath>
</defs>
</svg>
