<svg width="121" height="120" viewBox="0 0 121 120" fill="none" xmlns="http://www.w3.org/2000/svg">
<g id="Frame" clip-path="url(#clip0_3_18819)">
<g id="Group">
<path id="Vector" d="M111.108 112.729H9.89236C2.65415 112.729 -1.85803 104.883 1.79423 98.6256L52.4021 11.9226C56.0178 5.72805 64.9761 5.7168 68.5984 11.9226L119.206 98.6259C122.855 104.877 118.353 112.729 111.108 112.729Z" fill="#FF6B6B"/>
<path id="Vector_2" d="M59.2757 15.9345L8.66783 102.638C8.11447 103.586 8.79252 104.77 9.89244 104.77H111.108C112.206 104.77 112.888 103.588 112.333 102.638L61.7249 15.9345C61.1772 14.996 59.8267 14.9904 59.2757 15.9345Z" fill="#EE5253"/>
<path id="Vector_3" d="M60.5256 83.9369C62.8647 83.9369 64.8407 85.8834 64.8407 88.187C64.8407 90.4605 62.8647 92.3812 60.5256 92.3812C58.1184 92.3812 56.1599 90.4996 56.1599 88.187C56.1599 85.8831 58.1591 83.9369 60.5256 83.9369ZM60.5256 77.3751C58.1045 77.3751 56.4137 76.2025 56.4137 74.5237V50.8173C56.4137 49.4134 58.0661 47.9102 60.5256 47.9102C62.743 47.9102 64.6883 49.2688 64.6883 50.8173V74.5237C64.6883 76.1758 62.9378 77.3751 60.5256 77.3751Z" fill="#E4EAF8"/>
<path id="Vector_4" d="M6.62353 98.6262L57.2314 11.9229C58.512 9.72891 60.5474 8.20219 62.915 7.58227C58.9677 6.54891 54.6294 8.1068 52.4021 11.9229L1.79423 98.6262C-1.85475 104.877 2.64759 112.73 9.89236 112.73H14.7217C7.48298 112.729 2.9715 104.883 6.62353 98.6262Z" fill="#EE5253"/>
<path id="Vector_5" d="M13.497 102.638L62.9149 17.9733L61.7248 15.9345C61.1761 14.9941 59.8256 14.9923 59.2756 15.9345L8.66768 102.638C8.11409 103.586 8.79237 104.77 9.89229 104.77H14.7216C13.6235 104.771 12.9424 103.588 13.497 102.638Z" fill="#E24951"/>
<path id="Vector_6" d="M60.9892 88.187C60.9892 86.7503 61.7671 85.453 62.9263 84.6796C62.2349 84.213 61.4062 83.9369 60.5259 83.9369C58.1594 83.9369 56.1602 85.8834 56.1602 88.187C56.1602 90.4998 58.1186 92.3814 60.5259 92.3814C61.3991 92.3814 62.2213 92.1133 62.9095 91.6595C61.7514 90.9044 60.9892 89.6298 60.9892 88.187ZM61.243 74.5237V50.8173C61.243 49.9511 61.8735 49.0483 62.9329 48.483C62.2427 48.1272 61.4069 47.9102 60.5256 47.9102C58.0661 47.9102 56.4138 49.4134 56.4138 50.8173V74.5237C56.4138 76.2025 58.1045 77.3751 60.5256 77.3751C61.4477 77.3751 62.2715 77.1988 62.9395 76.8902C61.8843 76.3954 61.243 75.5559 61.243 74.5237Z" fill="#D8DCE5"/>
</g>
</g>
<defs>
<clipPath id="clip0_3_18819">
<rect width="120" height="120" fill="white" transform="translate(0.5)"/>
</clipPath>
</defs>
</svg>
