<svg width="127" height="127" viewBox="0 0 127 127" fill="none" xmlns="http://www.w3.org/2000/svg">
<path d="M95.3524 94.9822C112.831 77.5422 112.831 49.2664 95.3524 31.8264C77.8739 14.3865 49.5357 14.3865 32.0572 31.8264C14.5788 49.2664 14.5788 77.5422 32.0572 94.9822C49.5357 112.422 77.8739 112.422 95.3524 94.9822Z" fill="#F4DDD4"/>
<mask id="mask0_3_17676" style="mask-type:luminance" maskUnits="userSpaceOnUse" x="18" y="18" width="91" height="91">
<path d="M95.3529 94.9797C112.831 77.5398 112.831 49.264 95.3529 31.824C77.8744 14.384 49.5362 14.384 32.0577 31.824C14.5793 49.264 14.5793 77.5397 32.0577 94.9797C49.5362 112.42 77.8744 112.42 95.3529 94.9797Z" fill="white"/>
</mask>
<g mask="url(#mask0_3_17676)">
<path d="M83.2464 77.9707C77.5977 81.3685 69.0876 85.8386 63.5165 85.7652L63.5153 85.7664L63.6402 86.8056C57.8864 86.8819 48.2595 81.6834 42.0955 77.9457C39.684 76.4832 39.2359 73.3556 41.0009 71.1968C42.2 69.7303 42.8319 67.6728 41.5605 64.9027C38.4371 58.0851 37.6564 48.1231 42.1323 38.0364C46.2575 28.7579 57.0357 25.1977 62.6862 29.4117C68.3425 25.2036 79.1084 28.7637 83.2272 38.0364C87.7095 48.1231 86.9283 58.0851 83.799 64.9027C82.5299 67.6722 83.163 69.7297 84.3615 71.1968C86.1353 73.3673 85.6749 76.5094 83.2464 77.9707Z" fill="#D88D48"/>
<path d="M98.566 108.064H28.8481C28.8481 108.064 32.0999 95.5412 36.7252 88.1228C41.3505 80.6997 58.3294 78.1753 58.3294 78.1753L63.7068 79.0736L69.0842 78.1753C69.0842 78.1753 86.0689 80.6997 90.6942 88.1228C95.32 95.5412 98.566 108.064 98.566 108.064Z" fill="#9FC9C1"/>
<path d="M58.3305 78.1764C51.272 79.7577 48.015 84.8851 54.3703 86.2341C54.3703 86.2341 51.9396 90.7077 57.8876 92.6534C63.8357 94.5991 65.3877 89.6068 65.3877 89.6068C65.3877 89.6068 68.8951 94.7552 73.0588 92.6534C77.2232 90.5517 77.6287 86.6102 73.7071 84.803C73.7071 84.803 76.006 86.2341 77.0878 84.0753C78.1696 81.9165 73.913 78.6189 67.4544 78.1764C60.9964 77.7334 58.3305 78.1764 58.3305 78.1764Z" fill="white"/>
<path d="M63.5776 84.8054C60.6602 84.8054 58.2959 82.4457 58.2959 79.5353V69.4673H68.8599V79.5353C68.8599 82.4457 66.495 84.8054 63.5776 84.8054Z" fill="#F1B69A"/>
<path d="M68.8593 68.2998V74.481C68.8593 74.481 67.0855 77.5586 63.577 77.5586C60.7582 77.5586 58.2959 74.8903 58.2959 74.8903V68.2998H68.8593Z" fill="#150A08"/>
<path d="M48.7971 57.4818C45.941 53.1526 42.6279 55.9338 42.6279 58.9822C42.6279 63.3958 47.4259 67.197 50.1677 64.0293C52.9095 60.8609 48.7971 57.4818 48.7971 57.4818Z" fill="#F1B69A"/>
<path d="M48.1719 59.4808C46.3946 56.1657 43.9375 59.259 44.8758 60.4868" stroke="#E07E61" stroke-miterlimit="10" stroke-linecap="round"/>
<path d="M77.33 57.4818C80.1861 53.1526 83.4986 55.9338 83.4986 58.9822C83.4986 63.3958 78.7006 67.197 75.9588 64.0293C73.2176 60.8609 77.33 57.4818 77.33 57.4818Z" fill="#F1B69A"/>
<path d="M77.9536 59.4808C79.7309 56.1657 82.188 59.259 81.2497 60.4868" stroke="#E07E61" stroke-miterlimit="10" stroke-linecap="round"/>
<path d="M63.0509 74.4822C51.7645 74.4775 45.0906 62.1715 47.7291 49.536C49.9026 39.124 76.2254 39.128 78.3989 49.536C81.0374 62.1721 74.3425 74.4868 63.0509 74.4822Z" fill="#F1B69A"/>
<path opacity="0.5" d="M61.5527 61.832C62.7145 62.3851 65.3308 61.1584 65.3851 61.832C65.4393 62.5056 63.997 63.1018 63.4689 63.1018C62.9414 63.1018 61.5527 61.832 61.5527 61.832Z" fill="#F1B69A"/>
<path d="M61.5908 58.439C59.9436 61.9916 62.4065 62.6809 63.0658 62.7665" stroke="#E07E61" stroke-miterlimit="10" stroke-linecap="round"/>
<path d="M58.5992 48.7555C57.8938 47.1841 53.761 47.9025 53.1769 49.0215C52.5922 50.1405 54.5265 50.4543 55.9619 50.3845C57.3972 50.3134 59.0485 49.7557 58.5992 48.7555Z" fill="#D88D48"/>
<path d="M67.5283 48.7555C68.2337 47.1841 72.3666 47.9025 72.9506 49.0215C73.5353 50.1405 71.6011 50.4543 70.1657 50.3845C68.7303 50.3134 67.079 49.7557 67.5283 48.7555Z" fill="#D88D48"/>
<path d="M55.6147 54.8127C55.6147 55.4385 56.123 55.9456 56.7502 55.9456C57.3774 55.9456 57.8857 55.4385 57.8857 54.8127C57.8857 54.1868 57.3774 53.6797 56.7502 53.6797C56.123 53.6797 55.6147 54.1868 55.6147 54.8127Z" fill="#150A08"/>
<path d="M70.5146 54.8127C70.5146 55.4385 70.0064 55.9456 69.3791 55.9456C68.7519 55.9456 68.2437 55.4385 68.2437 54.8127C68.2437 54.1868 68.7519 53.6797 69.3791 53.6797C70.0064 53.6797 70.5146 54.1868 70.5146 54.8127Z" fill="#150A08"/>
<path d="M59.1021 64.9848C63.4589 65.8202 66.9138 65.1239 68.3089 64.0107" stroke="#150A08" stroke-miterlimit="10" stroke-linecap="round"/>
<path opacity="0.5" d="M62.0294 67.1282C63.6095 67.1323 65.8752 66.3126 66.2258 67.1282C66.5765 67.9445 64.6475 69.5764 63.4508 69.4599C62.2535 69.3435 60.2247 67.1236 62.0294 67.1282Z" fill="#F1B69A"/>
<path d="M64.3863 45.221C65.8817 41.4908 65.3315 36.9205 63.0647 36.8186C60.7978 36.7167 57.8862 40.1482 57.8862 40.1482L59.1028 45.221H64.3863Z" fill="#F1B69A"/>
<path d="M62.2707 36.7189C61.1586 45.5719 76.4138 49.6252 79.6843 49.0657C82.9553 48.5062 82.0946 38.0766 73.8529 36.1868C65.6118 34.297 62.6967 33.3305 62.2707 36.7189Z" fill="#D88D48"/>
<path d="M63.0663 36.8185C64.1784 45.6714 48.9494 49.6269 45.679 49.0674C42.4086 48.5079 43.2686 38.0784 51.5104 36.1885C59.7521 34.2987 62.6409 33.4295 63.0663 36.8185Z" fill="#D88D48"/>
</g>
</svg>
