<svg width="104" height="103" viewBox="0 0 104 103" fill="none" xmlns="http://www.w3.org/2000/svg">
<path d="M96.4339 58.8417C100.53 34.518 84.0883 11.4867 59.7109 7.39986C35.3335 3.31302 12.2513 19.7183 8.15547 44.042C4.05961 68.3657 20.5011 91.397 44.8785 95.4839C69.2559 99.5707 92.3381 83.1655 96.4339 58.8417Z" fill="#F4E6E1"/>
<mask id="mask0_3_17586" style="mask-type:luminance" maskUnits="userSpaceOnUse" x="7" y="6" width="91" height="91">
<path d="M96.4339 58.8417C100.53 34.518 84.0883 11.4867 59.7109 7.39986C35.3335 3.31302 12.2513 19.7183 8.15547 44.042C4.05961 68.3657 20.5011 91.397 44.8785 95.4839C69.2559 99.5707 92.3381 83.1655 96.4339 58.8417Z" fill="white"/>
</mask>
<g mask="url(#mask0_3_17586)">
<path d="M69.2054 43.2928C75.3647 32.2263 70.4862 25.8821 66.5436 27.9576C66.5436 27.9576 65.9467 21.0952 56.9196 16.9581C46.4746 12.1713 32.9832 15.9026 30.3529 23.1137C27.9261 29.7677 32.2603 32.9744 32.2603 32.9744C32.2603 32.9744 29.5774 37.7566 34.1671 44.9113C38.7574 52.066 66.4479 48.2479 69.2054 43.2928Z" fill="#5B4852"/>
<path d="M91.2829 97.0324H13.3076C13.3076 97.0324 15.6719 83.9835 21.0312 76.472C26.3905 68.9558 46.2804 66.2153 46.2804 66.2153L52.295 67.141L58.3095 66.2153C58.3095 66.2153 78.2058 68.9558 83.5651 76.472C88.9245 83.9835 91.2829 97.0324 91.2829 97.0324Z" fill="#D88D48"/>
<path d="M46.2815 66.2153L38.5801 67.6563C38.5801 67.6563 40.3556 76.348 47.3965 80.6929L52.1776 74.847V68.5762L46.2815 66.2153Z" fill="white"/>
<path d="M57.775 66.2153L65.4765 67.6563C65.4765 67.6563 63.7009 76.348 56.66 80.6929L51.8789 74.847V68.5762L57.775 66.2153Z" fill="white"/>
<path d="M52.167 72.8454C49.2495 72.8454 46.8853 70.4857 46.8853 67.5747V57.5073H57.4493V67.5747C57.4493 70.4857 55.0844 72.8454 52.167 72.8454Z" fill="#F1B69A"/>
<path d="M57.4487 56.3398V62.5211C57.4487 62.5211 55.6749 65.5986 52.1664 65.5986C49.3476 65.5986 46.8853 62.9304 46.8853 62.9304V56.3398H57.4487Z" fill="#150A08"/>
<path d="M37.3865 45.5222C34.5303 41.1923 31.2179 43.9741 31.2173 47.0219C31.2173 51.4356 36.0153 55.2368 38.7571 52.069C41.4989 48.9007 37.3865 45.5222 37.3865 45.5222Z" fill="#F1B69A"/>
<path d="M36.7612 47.5208C34.9839 44.2058 32.5269 47.299 33.4651 48.5269" stroke="#E07E61" stroke-miterlimit="10" stroke-linecap="round"/>
<path d="M65.9194 45.5222C68.7755 41.1923 72.088 43.9741 72.088 47.0219C72.088 51.4356 67.29 55.2368 64.5482 52.069C61.8069 48.9007 65.9194 45.5222 65.9194 45.5222Z" fill="#F1B69A"/>
<path d="M66.543 47.5208C68.3203 44.2058 70.7773 47.299 69.8391 48.5269" stroke="#E07E61" stroke-miterlimit="10" stroke-linecap="round"/>
<path d="M51.6407 62.5222C40.3544 62.5176 33.6804 50.2116 36.319 37.5761C38.4924 27.164 64.8152 27.1681 66.9887 37.5761C69.6273 50.2122 62.9323 62.5269 51.6407 62.5222Z" fill="#F1B69A"/>
<path opacity="0.5" d="M50.1421 49.8721C51.3038 50.4252 53.9202 49.1985 53.9744 49.8721C54.0287 50.5457 52.5857 51.1419 52.0583 51.1419C51.5308 51.1419 50.1421 49.8721 50.1421 49.8721Z" fill="#F1B69A"/>
<path d="M50.1801 46.479C48.5329 50.0316 50.9958 50.7209 51.6552 50.8065" stroke="#E07E61" stroke-miterlimit="10" stroke-linecap="round"/>
<path d="M47.7139 52.7363C52.0708 53.5712 55.5256 52.8755 56.9207 51.7617" stroke="#150A08" stroke-miterlimit="10" stroke-linecap="round"/>
<path d="M47.1886 36.7955C46.4831 35.2241 42.3503 35.9426 41.7662 37.0616C41.1816 38.1806 43.1158 38.4949 44.5512 38.4245C45.9866 38.3541 47.6379 37.7957 47.1886 36.7955Z" fill="#150A08"/>
<path d="M56.1177 36.7955C56.8231 35.2241 60.9559 35.9426 61.54 37.0616C62.1241 38.1806 60.1904 38.4949 58.755 38.4245C57.3197 38.3541 55.6684 37.7957 56.1177 36.7955Z" fill="#150A08"/>
<path opacity="0.5" d="M50.6368 54.8794C52.2169 54.8835 54.4826 54.0632 54.8333 54.8794C55.1839 55.6957 53.2549 57.3276 52.0582 57.2112C50.8609 57.0947 48.8321 54.8748 50.6368 54.8794Z" fill="#F1B69A"/>
<path d="M44.2046 42.8527C44.2046 43.4786 44.7128 43.9857 45.3401 43.9857C45.9673 43.9857 46.4755 43.4786 46.4755 42.8527C46.4755 42.2268 45.9673 41.7197 45.3401 41.7197C44.7128 41.7197 44.2046 42.2268 44.2046 42.8527Z" fill="#150A08"/>
<path d="M59.1039 42.8527C59.1039 43.4786 58.5957 43.9857 57.9685 43.9857C57.3412 43.9857 56.833 43.4786 56.833 42.8527C56.833 42.2268 57.3412 41.7197 57.9685 41.7197C58.5957 41.7197 59.1039 42.2268 59.1039 42.8527Z" fill="#150A08"/>
<path d="M61.6449 29.7659C58.7193 36.3133 52.315 32.5849 52.315 32.5849C52.315 32.5849 48.115 36.5107 41.6588 35.8848C35.2025 35.2584 31.8393 27.5355 39.6988 24.2676C47.5584 20.9997 65.7591 20.5607 61.6449 29.7659Z" fill="#5B4852"/>
</g>
</svg>
