<svg width="127" height="127" viewBox="0 0 127 127" fill="none" xmlns="http://www.w3.org/2000/svg">
<path d="M94.9423 94.9822C112.421 77.5422 112.421 49.2664 94.9422 31.8264C77.4638 14.3864 49.1256 14.3865 31.6471 31.8264C14.1686 49.2664 14.1686 77.5422 31.6471 94.9822C49.1256 112.422 77.4638 112.422 94.9423 94.9822Z" fill="#F4DDD4"/>
<mask id="mask0_3_17645" style="mask-type:luminance" maskUnits="userSpaceOnUse" x="18" y="18" width="91" height="91">
<path d="M94.9423 94.9797C112.421 77.5398 112.421 49.264 94.9423 31.824C77.4638 14.384 49.1256 14.384 31.6471 31.824C14.1686 49.264 14.1686 77.5397 31.6471 94.9797C49.1256 112.42 77.4638 112.42 94.9423 94.9797Z" fill="white"/>
</mask>
<g mask="url(#mask0_3_17645)">
<path d="M48.2515 37.9905C48.5339 37.3257 44.6082 38.5593 44.2744 38.7177C42.3308 39.6382 40.8342 40.9999 39.9969 43.012C39.1864 44.9595 39.0446 47.1177 39.0925 49.2258C39.2413 55.7121 44.1501 63.8891 39.4968 69.6721C37.0935 72.6588 32.8819 73.3971 29.703 75.5448C23.6494 79.6348 22.4258 88.7334 25.9343 95.1329C29.4428 101.532 36.6057 105.312 43.8374 106.383C51.0691 107.453 58.4327 106.171 65.5635 104.561C70.5173 103.443 75.5843 102.094 79.6185 99.0145C89.127 91.7574 84.6948 82.6669 80.3315 74.1673C77.5349 68.7197 82.5517 66.1551 84.7415 59.3934C88.6818 47.2271 83.0377 35.4201 72.2596 30.7567C54.5986 23.1165 48.2871 37.9067 48.2515 37.9905Z" fill="#D76A40"/>
<path d="M98.1558 108.063H28.438C28.438 108.063 31.6898 95.5407 36.315 88.1223C40.9403 80.6992 57.9192 78.1748 57.9192 78.1748L63.2966 79.0732L68.674 78.1748C68.674 78.1748 85.6587 80.6992 90.284 88.1223C94.9099 95.5407 98.1558 108.063 98.1558 108.063Z" fill="#5B4850"/>
<path d="M47.7651 80.6519C55.9304 92.2965 71.373 90.8113 78.834 80.6519C78.834 80.6519 63.8658 73.6975 47.7651 80.6519Z" fill="#F1B69A"/>
<path d="M63.167 84.8049C60.2495 84.8049 57.8853 82.4452 57.8853 79.5348V69.4668H68.4493V79.5348C68.4493 82.4452 66.0844 84.8049 63.167 84.8049Z" fill="#F1B69A"/>
<path d="M68.4487 68.2993V74.4805C68.4487 74.4805 66.6749 77.5581 63.1664 77.5581C60.3476 77.5581 57.8853 74.8898 57.8853 74.8898V68.2993H68.4487Z" fill="#150A08"/>
<path d="M48.3865 57.4814C45.5303 53.1521 42.2179 55.9333 42.2173 58.9817C42.2173 63.3953 47.0153 67.1965 49.7571 64.0288C52.4989 60.8605 48.3865 57.4814 48.3865 57.4814Z" fill="#F1B69A"/>
<path d="M47.7612 59.4803C45.9839 56.1653 43.5269 59.2585 44.4651 60.4864" stroke="#E07E61" stroke-miterlimit="10" stroke-linecap="round"/>
<path d="M76.9194 57.4814C79.7755 53.1521 83.088 55.9333 83.088 58.9817C83.088 63.3953 78.29 67.1965 75.5482 64.0288C72.8069 60.8605 76.9194 57.4814 76.9194 57.4814Z" fill="#F1B69A"/>
<path d="M77.543 59.4803C79.3203 56.1653 81.7773 59.2585 80.8391 60.4864" stroke="#E07E61" stroke-miterlimit="10" stroke-linecap="round"/>
<path d="M62.6407 74.4817C51.3544 74.477 44.6804 62.1711 47.319 49.5356C49.4924 39.1235 75.8152 39.1276 77.9887 49.5356C80.6273 62.1716 73.9323 74.4863 62.6407 74.4817Z" fill="#F1B69A"/>
<path opacity="0.5" d="M61.1421 61.8315C62.3038 62.3846 64.9202 61.1579 64.9744 61.8315C65.0287 62.5052 63.5857 63.1013 63.0583 63.1013C62.5308 63.1013 61.1421 61.8315 61.1421 61.8315Z" fill="#F1B69A"/>
<path d="M61.1801 58.4385C59.5329 61.9911 61.9958 62.6804 62.6552 62.766" stroke="#E07E61" stroke-miterlimit="10" stroke-linecap="round"/>
<path d="M58.1886 48.755C57.4831 47.1836 53.3503 47.9021 52.7662 49.021C52.1816 50.14 54.1158 50.4538 55.5512 50.384C56.9866 50.3129 58.6379 49.7552 58.1886 48.755Z" fill="#D76A40"/>
<path d="M67.1177 48.755C67.8231 47.1836 71.9559 47.9021 72.54 49.021C73.1241 50.14 71.1904 50.4538 69.755 50.384C68.3197 50.3129 66.6684 49.7552 67.1177 48.755Z" fill="#150A08"/>
<path d="M55.2046 54.8122C55.2046 55.438 55.7128 55.9451 56.3401 55.9451C56.9673 55.9451 57.4755 55.438 57.4755 54.8122C57.4755 54.1863 56.9673 53.6792 56.3401 53.6792C55.7128 53.6792 55.2046 54.1863 55.2046 54.8122Z" fill="#150A08"/>
<path d="M70.1039 54.8122C70.1039 55.438 69.5957 55.9451 68.9685 55.9451C68.3412 55.9451 67.833 55.438 67.833 54.8122C67.833 54.1863 68.3412 53.6792 68.9685 53.6792C69.5957 53.6792 70.1039 54.1863 70.1039 54.8122Z" fill="#150A08"/>
<path d="M58.4277 64.6357C62.7479 65.0992 65.6361 64.6253 67.6859 64.6951C67.6859 64.6951 65.0981 68.342 62.0559 67.6166C59.0136 66.8912 58.4277 64.6357 58.4277 64.6357Z" fill="white"/>
<path opacity="0.5" d="M61.4143 68.68C62.9944 68.684 65.2601 67.8643 65.6107 68.68C65.9614 69.4962 64.0324 71.1281 62.8357 71.0117C61.6389 70.8952 59.6102 68.6753 61.4143 68.68Z" fill="#F1B69A"/>
<path d="M55.2061 38.43C55.1856 49.0389 75.3818 54.136 79.2976 51.6279C83.2134 49.1198 80.1606 40.1178 69.8463 37.6795C59.5315 35.2419 55.2119 35.271 55.2061 38.43Z" fill="#D76A40"/>
<path d="M55.2484 38.3575C57.8222 43.4838 50.7503 54.7977 46.7318 54.0484C42.714 53.2992 42.714 48.8669 45.8479 43.6119C48.9823 38.3576 54.0272 35.9251 55.2484 38.3575Z" fill="#D76A40"/>
</g>
</svg>
