<?xml version="1.0" standalone="no"?>
<!DOCTYPE svg PUBLIC "-//W3C//DTD SVG 20010904//EN"
 "http://www.w3.org/TR/2001/REC-SVG-20010904/DTD/svg10.dtd">
<svg version="1.0" xmlns="http://www.w3.org/2000/svg"
 width="20.000000pt" height="20.000000pt" viewBox="0 0 20.000000 20.000000"
 preserveAspectRatio="xMidYMid meet">

<g transform="translate(0.000000,20.000000) scale(0.100000,-0.100000)"
fill="#000000" stroke="none">
<path d="M4 157 c-3 -8 -4 -39 -2 -68 l3 -54 95 0 95 0 0 65 0 65 -93 3 c-72
2 -94 0 -98 -11z m186 -57 l0 -60 -90 0 -90 0 0 60 0 60 90 0 90 0 0 -60z"/>
<path d="M47 134 c-4 -4 -7 -17 -7 -29 0 -11 -6 -27 -12 -34 -7 -8 -1 -6 13 3
24 15 28 15 42 1 19 -18 34 -20 19 -2 -5 6 -12 23 -14 37 -3 24 -27 38 -41 24z
m33 -19 c0 -8 -7 -15 -15 -15 -8 0 -15 7 -15 15 0 8 7 15 15 15 8 0 15 -7 15
-15z"/>
<path d="M133 133 c9 -2 23 -2 30 0 6 3 -1 5 -18 5 -16 0 -22 -2 -12 -5z"/>
<path d="M133 103 c9 -2 23 -2 30 0 6 3 -1 5 -18 5 -16 0 -22 -2 -12 -5z"/>
<path d="M138 73 c6 -2 18 -2 25 0 6 3 1 5 -13 5 -14 0 -19 -2 -12 -5z"/>
</g>
</svg>
