<svg width="16" height="16" viewBox="0 0 16 16" fill="none" xmlns="http://www.w3.org/2000/svg">
<g id="Calender" clip-path="url(#clip0_3_21351)">
<path id="Vector" d="M11.3334 2.66732H14C14.1769 2.66732 14.3464 2.73756 14.4714 2.86258C14.5965 2.9876 14.6667 3.15717 14.6667 3.33398V14.0007C14.6667 14.1775 14.5965 14.347 14.4714 14.4721C14.3464 14.5971 14.1769 14.6673 14 14.6673H2.00004C1.82323 14.6673 1.65366 14.5971 1.52864 14.4721C1.40361 14.347 1.33337 14.1775 1.33337 14.0007V3.33398C1.33337 3.15717 1.40361 2.9876 1.52864 2.86258C1.65366 2.73756 1.82323 2.66732 2.00004 2.66732H4.66671V1.33398H6.00004V2.66732H10V1.33398H11.3334V2.66732ZM10 4.00065H6.00004V5.33398H4.66671V4.00065H2.66671V6.66732H13.3334V4.00065H11.3334V5.33398H10V4.00065ZM13.3334 8.00065H2.66671V13.334H13.3334V8.00065Z" fill="#5B6572"/>
</g>
<defs>
<clipPath id="clip0_3_21351">
<rect width="16" height="16" fill="white"/>
</clipPath>
</defs>
</svg>
