<svg width="41" height="40" viewBox="0 0 41 40" fill="none" xmlns="http://www.w3.org/2000/svg">
<rect x="0.5" width="40" height="40" rx="8" fill="white"/>
<path d="M20.5007 13.3335C16.8188 13.3335 13.834 16.3183 13.834 20.0002C13.834 23.3277 16.2719 26.0857 19.459 26.5858V21.9272H17.7663V20.0002H19.459V18.5314C19.459 16.8606 20.4543 15.9377 21.9771 15.9377C22.7065 15.9377 23.4694 16.0679 23.4694 16.0679V17.7085H22.6287C21.8006 17.7085 21.5423 18.2224 21.5423 18.7496V20.0002H23.3913L23.0957 21.9272H21.5423V26.5858C24.7294 26.0857 27.1673 23.3277 27.1673 20.0002C27.1673 16.3183 24.1825 13.3335 20.5007 13.3335Z" fill="#E40443"/>
</svg>
