<?xml version="1.0" standalone="no"?>
<!DOCTYPE svg PUBLIC "-//W3C//DTD SVG 20010904//EN"
 "http://www.w3.org/TR/2001/REC-SVG-20010904/DTD/svg10.dtd">
<svg version="1.0" xmlns="http://www.w3.org/2000/svg"
 width="20.000000pt" height="20.000000pt" viewBox="0 0 20.000000 20.000000"
 preserveAspectRatio="xMidYMid meet">

<g transform="translate(0.000000,20.000000) scale(0.100000,-0.100000)"
fill="#000000" stroke="none">
<path d="M43 135 c-53 -49 -44 -63 10 -15 19 17 40 30 47 30 7 0 28 -13 47
-30 37 -33 66 -41 40 -12 -10 10 -17 31 -17 45 0 17 -5 27 -15 27 -8 0 -15 -7
-15 -17 0 -15 -1 -15 -18 0 -10 10 -21 17 -24 17 -3 0 -28 -20 -55 -45z"/>
<path d="M61 114 c-24 -19 -31 -34 -31 -60 0 -29 3 -34 24 -34 18 0 25 6 28
23 4 29 32 29 36 0 3 -17 10 -23 28 -23 21 0 24 5 24 34 0 26 -7 41 -31 60
-17 14 -34 26 -39 26 -5 0 -22 -12 -39 -26z"/>
</g>
</svg>
