<?xml version="1.0" standalone="no"?>
<!DOCTYPE svg PUBLIC "-//W3C//DTD SVG 20010904//EN"
 "http://www.w3.org/TR/2001/REC-SVG-20010904/DTD/svg10.dtd">
<svg version="1.0" xmlns="http://www.w3.org/2000/svg"
 width="20.000000pt" height="20.000000pt" viewBox="0 0 20.000000 20.000000"
 preserveAspectRatio="xMidYMid meet">

<g transform="translate(0.000000,20.000000) scale(0.100000,-0.100000)"
fill="#000000" stroke="none">
<path d="M20 100 l0 -100 80 0 80 0 0 63 c0 60 -2 65 -38 100 -31 31 -45 37
-80 37 l-42 0 0 -100z m90 55 c0 -20 5 -25 25 -25 24 0 25 -3 25 -55 l0 -55
-60 0 -60 0 0 80 0 80 35 0 c31 0 35 -3 35 -25z"/>
<path d="M70 95 c-20 -24 -3 -55 30 -55 20 0 31 6 35 20 8 25 -10 50 -35 50
-10 0 -23 -7 -30 -15z m40 -5 c0 -5 -4 -10 -10 -10 -5 0 -10 5 -10 10 0 6 5
10 10 10 6 0 10 -4 10 -10z"/>
</g>
</svg>
