<svg width="41" height="40" viewBox="0 0 41 40" fill="none" xmlns="http://www.w3.org/2000/svg">
<rect x="0.5" width="40" height="40" rx="8" fill="white"/>
<path d="M24.7241 24.226H22.9471V21.4415C22.9471 20.7775 22.9336 19.923 22.0211 19.923C21.0946 19.923 20.9531 20.6455 20.9531 21.3925V24.226H19.1761V18.5H20.8831V19.2805H20.9061C21.1446 18.8305 21.7246 18.3555 22.5911 18.3555C24.3916 18.3555 24.7246 19.5405 24.7246 21.083L24.7241 24.226ZM17.1691 17.7165C16.5971 17.7165 16.1376 17.2535 16.1376 16.684C16.1376 16.115 16.5976 15.6525 17.1691 15.6525C17.7391 15.6525 18.2011 16.115 18.2011 16.684C18.2011 17.2535 17.7386 17.7165 17.1691 17.7165ZM18.0601 24.226H16.2781V18.5H18.0601V24.226ZM25.6131 14H15.3861C14.8966 14 14.5006 14.387 14.5006 14.8645V25.1355C14.5006 25.6135 14.8966 26 15.3861 26H25.6116C26.1006 26 26.5006 25.6135 26.5006 25.1355V14.8645C26.5006 14.387 26.1006 14 25.6116 14H25.6131Z" fill="#E40443"/>
</svg>
