<svg width="16" height="16" viewBox="0 0 16 16" fill="none" xmlns="http://www.w3.org/2000/svg">
<g id="notification" clip-path="url(#clip0_655_1055)">
<path id="Vector" d="M13.3333 11.3335H14.6666V12.6668H1.33325V11.3335H2.66659V6.66683C2.66659 5.25234 3.22849 3.89579 4.22868 2.89559C5.22888 1.8954 6.58543 1.3335 7.99992 1.3335C9.41441 1.3335 10.771 1.8954 11.7712 2.89559C12.7713 3.89579 13.3333 5.25234 13.3333 6.66683V11.3335ZM11.9999 11.3335V6.66683C11.9999 5.60596 11.5785 4.58855 10.8283 3.8384C10.0782 3.08826 9.06078 2.66683 7.99992 2.66683C6.93905 2.66683 5.92164 3.08826 5.17149 3.8384C4.42135 4.58855 3.99992 5.60596 3.99992 6.66683V11.3335H11.9999ZM5.99992 14.0002H9.99992V15.3335H5.99992V14.0002Z" fill="#1A232F"/>
</g>
<defs>
<clipPath id="clip0_655_1055">
<rect width="16" height="16" fill="white"/>
</clipPath>
</defs>
</svg>
