<svg width="48" height="48" viewBox="0 0 48 48" fill="none" xmlns="http://www.w3.org/2000/svg">
<path d="M34.4361 16.5983L36.282 14.7524V12.6109L45.3524 3.54058L44.343 2.53125L35.2727 11.6016H33.1313L31.2854 13.4475L28.4301 10.5923L10.5849 28.4375L8.44348 26.2961L5.29273 29.4468L9.57558 33.7297L6.30206 37.0032L5.58825 36.2894L2.4375 39.4401L8.44348 45.4461L11.5942 42.2954L10.8804 41.5816L14.1539 38.308L18.4368 42.5909L21.5875 39.4401L19.4461 37.2987L37.2913 19.4535L34.4361 16.5983ZM33.7223 13.0292H34.8544V14.1613L33.4268 15.5889L32.2947 14.4568L33.7223 13.0292ZM8.44348 43.4275L4.45615 39.4401L5.58825 38.308L9.57558 42.2954L8.44348 43.4275ZM9.8711 40.5722L7.31138 38.0125L10.5849 34.739L13.1446 37.2987L9.8711 40.5722ZM19.5689 39.4401L18.4368 40.5722L15.1633 37.2987L10.5849 32.7203L7.31138 29.4468L8.44348 28.3147L9.57558 29.4468L18.4368 38.308L19.5689 39.4401ZM18.4368 36.2894L11.5942 29.4468L14.1539 26.8871L17.2183 29.9515L18.2277 28.9422L15.1633 25.8778L17.723 23.3181L22.215 27.8101L23.2243 26.8007L18.7323 22.3087L21.292 19.749L24.3564 22.8134L25.3657 21.8041L22.3014 18.7397L24.8611 16.18L29.3531 20.672L30.3624 19.6627L25.8704 15.1707L28.4301 12.6109L30.276 14.4568L33.4268 17.6076L35.2727 19.4535L18.4368 36.2894Z" fill="#E40443"/>
<path d="M44.7613 11.9328H44.7606L42.7063 9.87842L40.6519 11.9328C39.5844 12.9994 39.5836 14.7295 40.6502 15.797C40.9041 16.0512 41.2056 16.2527 41.5375 16.3902C41.8693 16.5276 42.225 16.5983 42.5842 16.5982H42.8291C44.3381 16.5987 45.562 15.3758 45.5625 13.8667C45.5626 13.5075 45.492 13.1518 45.3545 12.82C45.217 12.4881 45.0155 12.1866 44.7613 11.9328ZM43.7509 14.7883C43.5061 15.0329 43.1743 15.1704 42.8283 15.1705H42.5835C41.8625 15.1702 41.2781 14.5855 41.2784 13.8645C41.2785 13.5185 41.4159 13.1867 41.6606 12.942L42.7063 11.897L43.7513 12.942C44.261 13.452 44.2609 14.2786 43.7509 14.7883Z" fill="#E40443"/>
</svg>
