<svg width="48" height="48" viewBox="0 0 48 48" fill="none" xmlns="http://www.w3.org/2000/svg">
<path d="M39.7037 27.8546C40.0961 27.4659 40.0992 26.8328 39.7105 26.4404C39.3219 26.048 38.6887 26.0449 38.2963 26.4335L39.7037 27.8546ZM24 42L23.2963 42.7106C23.6861 43.0965 24.314 43.0965 24.7037 42.7106L24 42ZM18.9117 35.5535C18.5193 35.1649 17.8861 35.168 17.4975 35.5604C17.1089 35.9528 17.1119 36.586 17.5043 36.9746L18.9117 35.5535ZM4.97398 20.0639C4.97836 20.6162 5.42961 21.0603 5.98187 21.056C6.53414 21.0516 6.97829 20.6003 6.97392 20.0481L4.97398 20.0639ZM23.9999 14.012L23.1973 14.6085C23.3854 14.8615 23.6818 15.0111 23.9971 15.012C24.3125 15.0129 24.6097 14.865 24.7992 14.613L23.9999 14.012ZM38.2992 26.4426C37.9052 26.8296 37.8995 27.4627 38.2865 27.8567C38.6735 28.2507 39.3067 28.2564 39.7007 27.8694L38.2992 26.4426ZM38.2963 26.4335L23.2963 41.2895L24.7037 42.7106L39.7037 27.8546L38.2963 26.4335ZM24.7037 41.2895L18.9117 35.5535L17.5043 36.9746L23.2963 42.7106L24.7037 41.2895ZM6.97392 20.0481C6.94306 16.1539 9.42026 12.6816 13.1125 11.4436L12.4767 9.54737C7.96395 11.0605 4.93626 15.3044 4.97398 20.0639L6.97392 20.0481ZM13.1125 11.4436C16.8048 10.2056 20.8745 11.4828 23.1973 14.6085L24.8026 13.4155C21.9635 9.59523 16.9895 8.03426 12.4767 9.54737L13.1125 11.4436ZM24.7992 14.613C26.8283 11.9144 30.1971 10.5785 33.5242 11.153L33.8645 9.1822C29.7981 8.47996 25.6807 10.1127 23.2007 13.411L24.7992 14.613ZM33.5242 11.153C36.8513 11.7276 39.5769 14.116 40.5834 17.3388L42.4925 16.7426C41.2623 12.8036 37.931 9.88445 33.8645 9.1822L33.5242 11.153ZM40.5834 17.3388C41.5899 20.5616 40.708 24.0767 38.2992 26.4426L39.7007 27.8694C42.6447 24.9777 43.7226 20.6816 42.4925 16.7426L40.5834 17.3388Z" fill="#E40443"/>
<path d="M6 26H10L14 32L18 20L20 26H26" stroke="#E40443" stroke-width="2" stroke-linecap="round" stroke-linejoin="round"/>
</svg>
