<svg width="16" height="16" viewBox="0 0 16 16" fill="none" xmlns="http://www.w3.org/2000/svg">
<g clip-path="url(#clip0_3_17280)">
<path d="M8.32563 12.3557C8.12331 12.2425 7.87669 12.2425 7.67437 12.3557L4.55914 14.0995C4.06274 14.3774 3.46877 13.9458 3.57962 13.3879L4.27529 9.88613C4.32046 9.65872 4.24424 9.42417 4.07401 9.26675L1.45254 6.84272C1.03485 6.45649 1.2617 5.75822 1.82663 5.69122L5.37213 5.27072C5.60235 5.24342 5.80186 5.09847 5.89897 4.88795L7.39464 1.64571C7.63293 1.12916 8.36707 1.12916 8.60536 1.64571L10.101 4.88795C10.1981 5.09847 10.3977 5.24342 10.6279 5.27072L14.1734 5.69122C14.7383 5.75822 14.9652 6.45649 14.5475 6.84272L11.926 9.26675C11.7558 9.42417 11.6795 9.65872 11.7247 9.88613L12.4204 13.3879C12.5312 13.9458 11.9373 14.3774 11.4409 14.0995L8.32563 12.3557Z" fill="#F9C332"/>
</g>
<defs>
<clipPath id="clip0_3_17280">
<rect width="16" height="16" fill="white"/>
</clipPath>
</defs>
</svg>
